  0
SECTION
  2
HEADER
  9
$ACADVER
  1
AC1024
  9
$ACADMAINTVER
 70
     6
  9
$DWGCODEPAGE
  3
ANSI_1254
  9
$LASTSAVEDBY
  1
DOZ 3
  9
$INSBASE
 10
0.0
 20
0.0
 30
0.0
  9
$EXTMIN
 10
406441.4263940409
 20
4590093.072807207
 30
225.6116589384316
  9
$EXTMAX
 10
406871.7913930753
 20
4590261.239453428
 30
406.8546784870451
  9
$LIMMIN
 10
0.0
 20
0.0
  9
$LIMMAX
 10
420.0
 20
297.0
  9
$ORTHOMODE
 70
     0
  9
$REGENMODE
 70
     1
  9
$FILLMODE
 70
     1
  9
$QTEXTMODE
 70
     0
  9
$MIRRTEXT
 70
     1
  9
$LTSCALE
 40
1.0
  9
$ATTMODE
 70
     1
  9
$TEXTSIZE
 40
2.5
  9
$TRACEWID
 40
1.0
  9
$TEXTSTYLE
  7
Standard
  9
$CLAYER
  8
DESANDRE_323_289
  9
$CELTYPE
  6
ByLayer
  9
$CECOLOR
 62
   256
  9
$CELTSCALE
 40
1.0
  9
$DISPSILH
 70
     0
  9
$DIMSCALE
 40
1.0
  9
$DIMASZ
 40
2.5
  9
$DIMEXO
 40
0.625
  9
$DIMDLI
 40
3.75
  9
$DIMRND
 40
0.0
  9
$DIMDLE
 40
0.0
  9
$DIMEXE
 40
1.25
  9
$DIMTP
 40
0.0
  9
$DIMTM
 40
0.0
  9
$DIMTXT
 40
2.5
  9
$DIMCEN
 40
2.5
  9
$DIMTSZ
 40
0.0
  9
$DIMTOL
 70
     0
  9
$DIMLIM
 70
     0
  9
$DIMTIH
 70
     0
  9
$DIMTOH
 70
     0
  9
$DIMSE1
 70
     0
  9
$DIMSE2
 70
     0
  9
$DIMTAD
 70
     1
  9
$DIMZIN
 70
     8
  9
$DIMBLK
  1

  9
$DIMASO
 70
     1
  9
$DIMSHO
 70
     1
  9
$DIMPOST
  1

  9
$DIMAPOST
  1

  9
$DIMALT
 70
     0
  9
$DIMALTD
 70
     3
  9
$DIMALTF
 40
0.03937007874016
  9
$DIMLFAC
 40
1.0
  9
$DIMTOFL
 70
     1
  9
$DIMTVP
 40
0.0
  9
$DIMTIX
 70
     0
  9
$DIMSOXD
 70
     0
  9
$DIMSAH
 70
     0
  9
$DIMBLK1
  1

  9
$DIMBLK2
  1

  9
$DIMSTYLE
  2
ISO-25
  9
$DIMCLRD
 70
     0
  9
$DIMCLRE
 70
     0
  9
$DIMCLRT
 70
     0
  9
$DIMTFAC
 40
1.0
  9
$DIMGAP
 40
0.625
  9
$DIMJUST
 70
     0
  9
$DIMSD1
 70
     0
  9
$DIMSD2
 70
     0
  9
$DIMTOLJ
 70
     0
  9
$DIMTZIN
 70
     8
  9
$DIMALTZ
 70
     0
  9
$DIMALTTZ
 70
     0
  9
$DIMUPT
 70
     0
  9
$DIMDEC
 70
     2
  9
$DIMTDEC
 70
     2
  9
$DIMALTU
 70
     2
  9
$DIMALTTD
 70
     3
  9
$DIMTXSTY
  7
Standard
  9
$DIMAUNIT
 70
     0
  9
$DIMADEC
 70
     0
  9
$DIMALTRND
 40
0.0
  9
$DIMAZIN
 70
     0
  9
$DIMDSEP
 70
    44
  9
$DIMATFIT
 70
     3
  9
$DIMFRAC
 70
     0
  9
$DIMLDRBLK
  1

  9
$DIMLUNIT
 70
     2
  9
$DIMLWD
 70
    -2
  9
$DIMLWE
 70
    -2
  9
$DIMTMOVE
 70
     0
  9
$DIMFXL
 40
1.0
  9
$DIMFXLON
 70
     0
  9
$DIMJOGANG
 40
0.7853981633974483
  9
$DIMTFILL
 70
     0
  9
$DIMTFILLCLR
 70
     0
  9
$DIMARCSYM
 70
     0
  9
$DIMLTYPE
  6

  9
$DIMLTEX1
  6

  9
$DIMLTEX2
  6

  9
$DIMTXTDIRECTION
 70
     0
  9
$LUNITS
 70
     2
  9
$LUPREC
 70
     4
  9
$SKETCHINC
 40
1.0
  9
$FILLETRAD
 40
10.0
  9
$AUNITS
 70
     0
  9
$AUPREC
 70
     0
  9
$MENU
  1
.
  9
$ELEVATION
 40
0.0
  9
$PELEVATION
 40
0.0
  9
$THICKNESS
 40
0.0
  9
$LIMCHECK
 70
     0
  9
$CHAMFERA
 40
10.0
  9
$CHAMFERB
 40
10.0
  9
$CHAMFERC
 40
20.0
  9
$CHAMFERD
 40
0.0
  9
$SKPOLY
 70
     0
  9
$TDCREATE
 40
2458275.64428515
  9
$TDUCREATE
 40
2458275.51928515
  9
$TDUPDATE
 40
2458290.393593657
  9
$TDUUPDATE
 40
2458290.268593657
  9
$TDINDWG
 40
0.002588588
  9
$TDUSRTIMER
 40
0.0024933333
  9
$USRTIMER
 70
     1
  9
$ANGBASE
 50
0.0
  9
$ANGDIR
 70
     0
  9
$PDMODE
 70
     0
  9
$PDSIZE
 40
0.0
  9
$PLINEWID
 40
0.0
  9
$SPLFRAME
 70
     0
  9
$SPLINETYPE
 70
     6
  9
$SPLINESEGS
 70
     8
  9
$HANDSEED
  5
3D8
  9
$SURFTAB1
 70
     6
  9
$SURFTAB2
 70
     6
  9
$SURFTYPE
 70
     6
  9
$SURFU
 70
     6
  9
$SURFV
 70
     6
  9
$UCSBASE
  2

  9
$UCSNAME
  2

  9
$UCSORG
 10
0.0
 20
0.0
 30
0.0
  9
$UCSXDIR
 10
1.0
 20
0.0
 30
0.0
  9
$UCSYDIR
 10
0.0
 20
1.0
 30
0.0
  9
$UCSORTHOREF
  2

  9
$UCSORTHOVIEW
 70
     0
  9
$UCSORGTOP
 10
0.0
 20
0.0
 30
0.0
  9
$UCSORGBOTTOM
 10
0.0
 20
0.0
 30
0.0
  9
$UCSORGLEFT
 10
0.0
 20
0.0
 30
0.0
  9
$UCSORGRIGHT
 10
0.0
 20
0.0
 30
0.0
  9
$UCSORGFRONT
 10
0.0
 20
0.0
 30
0.0
  9
$UCSORGBACK
 10
0.0
 20
0.0
 30
0.0
  9
$PUCSBASE
  2

  9
$PUCSNAME
  2

  9
$PUCSORG
 10
0.0
 20
0.0
 30
0.0
  9
$PUCSXDIR
 10
1.0
 20
0.0
 30
0.0
  9
$PUCSYDIR
 10
0.0
 20
1.0
 30
0.0
  9
$PUCSORTHOREF
  2

  9
$PUCSORTHOVIEW
 70
     0
  9
$PUCSORGTOP
 10
0.0
 20
0.0
 30
0.0
  9
$PUCSORGBOTTOM
 10
0.0
 20
0.0
 30
0.0
  9
$PUCSORGLEFT
 10
0.0
 20
0.0
 30
0.0
  9
$PUCSORGRIGHT
 10
0.0
 20
0.0
 30
0.0
  9
$PUCSORGFRONT
 10
0.0
 20
0.0
 30
0.0
  9
$PUCSORGBACK
 10
0.0
 20
0.0
 30
0.0
  9
$USERI1
 70
     0
  9
$USERI2
 70
     0
  9
$USERI3
 70
     0
  9
$USERI4
 70
     0
  9
$USERI5
 70
     0
  9
$USERR1
 40
0.0
  9
$USERR2
 40
0.0
  9
$USERR3
 40
0.0
  9
$USERR4
 40
0.0
  9
$USERR5
 40
0.0
  9
$WORLDVIEW
 70
     1
  9
$SHADEDGE
 70
     3
  9
$SHADEDIF
 70
    70
  9
$TILEMODE
 70
     1
  9
$MAXACTVP
 70
    64
  9
$PINSBASE
 10
0.0
 20
0.0
 30
0.0
  9
$PLIMCHECK
 70
     0
  9
$PEXTMIN
 10
1.000000000000000E+20
 20
1.000000000000000E+20
 30
1.000000000000000E+20
  9
$PEXTMAX
 10
-1.000000000000000E+20
 20
-1.000000000000000E+20
 30
-1.000000000000000E+20
  9
$PLIMMIN
 10
0.0
 20
0.0
  9
$PLIMMAX
 10
0.0
 20
0.0
  9
$UNITMODE
 70
     0
  9
$VISRETAIN
 70
     1
  9
$PLINEGEN
 70
     0
  9
$PSLTSCALE
 70
     1
  9
$TREEDEPTH
 70
  3020
  9
$CMLSTYLE
  2
Standard
  9
$CMLJUST
 70
     0
  9
$CMLSCALE
 40
20.0
  9
$PROXYGRAPHICS
 70
     1
  9
$MEASUREMENT
 70
     1
  9
$CELWEIGHT
370
    -1
  9
$ENDCAPS
280
     0
  9
$JOINSTYLE
280
     0
  9
$LWDISPLAY
290
     0
  9
$INSUNITS
 70
     4
  9
$HYPERLINKBASE
  1

  9
$STYLESHEET
  1

  9
$XEDIT
290
     1
  9
$CEPSNTYPE
380
     0
  9
$PSTYLEMODE
290
     1
  9
$FINGERPRINTGUID
  2
{353D977B-088D-43C5-ADBB-BB6C775C4A70}
  9
$VERSIONGUID
  2
{FAEB1C32-E019-11D5-929B-00C0DF256EC4}
  9
$EXTNAMES
290
     1
  9
$PSVPSCALE
 40
0.0
  9
$OLESTARTUP
290
     0
  9
$SORTENTS
280
   127
  9
$INDEXCTL
280
     0
  9
$HIDETEXT
280
     1
  9
$XCLIPFRAME
280
     0
  9
$HALOGAP
280
     0
  9
$OBSCOLOR
 70
   257
  9
$OBSLTYPE
280
     0
  9
$INTERSECTIONDISPLAY
280
     0
  9
$INTERSECTIONCOLOR
 70
   257
  9
$DIMASSOC
280
     2
  9
$PROJECTNAME
  1

  9
$CAMERADISPLAY
290
     0
  9
$LENSLENGTH
 40
50.0
  9
$CAMERAHEIGHT
 40
0.0
  9
$STEPSPERSEC
 40
2.0
  9
$STEPSIZE
 40
6.0
  9
$3DDWFPREC
 40
2.0
  9
$PSOLWIDTH
 40
5.0
  9
$PSOLHEIGHT
 40
80.0
  9
$LOFTANG1
 40
1.570796326794897
  9
$LOFTANG2
 40
1.570796326794897
  9
$LOFTMAG1
 40
0.0
  9
$LOFTMAG2
 40
0.0
  9
$LOFTPARAM
 70
     7
  9
$LOFTNORMALS
280
     1
  9
$LATITUDE
 40
37.795
  9
$LONGITUDE
 40
-122.394
  9
$NORTHDIRECTION
 40
0.0
  9
$TIMEZONE
 70
 -8000
  9
$LIGHTGLYPHDISPLAY
280
     1
  9
$TILEMODELIGHTSYNCH
280
     1
  9
$SOLIDHIST
280
     1
  9
$SHOWHIST
280
     1
  9
$DWFFRAME
280
     2
  9
$DGNFRAME
280
     2
  9
$REALWORLDSCALE
290
     1
  9
$INTERFERECOLOR
 62
   256
  9
$CSHADOW
280
     0
  9
$SHADOWPLANELOCATION
 40
0.0
  0
ENDSEC
  0
SECTION
  2
CLASSES
  0
CLASS
  1
ACDBDICTIONARYWDFLT
  2
AcDbDictionaryWithDefault
  3
ObjectDBX Classes
 90
        0
 91
        5
280
     0
281
     0
  0
CLASS
  1
VISUALSTYLE
  2
AcDbVisualStyle
  3
ObjectDBX Classes
 90
     4095
 91
        5
280
     0
281
     0
  0
CLASS
  1
MATERIAL
  2
AcDbMaterial
  3
ObjectDBX Classes
 90
     1153
 91
        5
280
     0
281
     0
  0
CLASS
  1
SCALE
  2
AcDbScale
  3
ObjectDBX Classes
 90
     1153
 91
        5
280
     0
281
     0
  0
CLASS
  1
DICTIONARYVAR
  2
AcDbDictionaryVar
  3
ObjectDBX Classes
 90
        0
 91
        5
280
     0
281
     0
  0
CLASS
  1
TABLESTYLE
  2
AcDbTableStyle
  3
ObjectDBX Classes
 90
     4095
 91
        5
280
     0
281
     0
  0
CLASS
  1
MLEADERSTYLE
  2
AcDbMLeaderStyle
  3
ACDB_MLEADERSTYLE_CLASS
 90
     4095
 91
        5
280
     0
281
     0
  0
CLASS
  1
SUN
  2
AcDbSun
  3
SCENEOE
 90
     1153
 91
        5
280
     0
281
     0
  0
CLASS
  1
CELLSTYLEMAP
  2
AcDbCellStyleMap
  3
ObjectDBX Classes
 90
     1152
 91
        5
280
     0
281
     0
  0
ENDSEC
  0
SECTION
  2
TABLES
  0
TABLE
  2
VPORT
  5
8
330
0
100
AcDbSymbolTable
 70
     1
  0
VPORT
  5
29
330
8
100
AcDbSymbolTableRecord
100
AcDbViewportTableRecord
  2
*Active
 70
     0
 10
0.0
 20
0.0
 11
1.0
 21
1.0
 12
-59827016.23199353
 22
33000368.42569871
 13
0.0
 23
0.0
 14
10.0
 24
10.0
 15
10.0
 25
10.0
 16
-0.09935216046869755
 26
-0.5487155504524708
 36
0.8300845697522163
 17
55742246.455046
 27
-32674354.60153721
 37
-14967083.6143229
 40
43.97182442252039
 41
2.542929292929293
 42
50.0
 43
0.0
 44
0.0
 50
0.0
 51
357.7259566426444
 71
    16
 72
   100
 73
     1
 74
     3
 75
     0
 76
     0
 77
     0
 78
     0
281
     0
 65
     1
110
0.0
120
0.0
130
0.0
111
1.0
121
0.0
131
0.0
112
0.0
122
1.0
132
0.0
 79
     0
146
0.0
348
2F
 60
     3
 61
     5
292
     1
282
     1
141
0.0
142
0.0
 63
   250
361
2E9
  0
ENDTAB
  0
TABLE
  2
LTYPE
  5
5
330
0
100
AcDbSymbolTable
 70
     1
  0
LTYPE
  5
14
330
5
100
AcDbSymbolTableRecord
100
AcDbLinetypeTableRecord
  2
ByBlock
 70
     0
  3

 72
    65
 73
     0
 40
0.0
  0
LTYPE
  5
15
330
5
100
AcDbSymbolTableRecord
100
AcDbLinetypeTableRecord
  2
ByLayer
 70
     0
  3
Solid line
 72
    65
 73
     0
 40
0.0
  0
LTYPE
  5
16
330
5
100
AcDbSymbolTableRecord
100
AcDbLinetypeTableRecord
  2
Continuous
 70
     0
  3
Solid line
 72
    65
 73
     0
 40
0.0
  0
ENDTAB
  0
TABLE
  2
LAYER
  5
2
102
{ACAD_XDICTIONARY
360
31C
102
}
330
0
100
AcDbSymbolTable
 70
    22
  0
LAYER
  5
10
330
2
100
AcDbSymbolTableRecord
100
AcDbLayerTableRecord
  2
0
 70
     0
 62
     5
  6
Continuous
370
     0
390
F
347
3E
  0
LAYER
  5
42
330
2
100
AcDbSymbolTableRecord
100
AcDbLayerTableRecord
  2
DESANDRE_323_289
 70
     0
 62
   150
  6
Continuous
370
     0
390
F
347
3E
  0
LAYER
  5
44
330
2
100
AcDbSymbolTableRecord
100
AcDbLayerTableRecord
  2
DAMAR_PAPAZ
 70
     0
 62
     3
  6
Continuous
370
     0
390
F
347
3E
  0
LAYER
  5
45
330
2
100
AcDbSymbolTableRecord
100
AcDbLayerTableRecord
  2
DESANDRE_316_266
 70
     0
 62
     5
  6
Continuous
370
     0
390
F
347
3E
  0
LAYER
  5
46
330
2
100
AcDbSymbolTableRecord
100
AcDbLayerTableRecord
  2
GRID
 70
     0
 62
     1
  6
Continuous
370
     0
390
F
347
3E
  0
LAYER
  5
4D
330
2
100
AcDbSymbolTableRecord
100
AcDbLayerTableRecord
  2
LEJANT_SiHHIYE
 70
     0
 62
   132
  6
Continuous
370
     0
390
F
347
3E
  0
LAYER
  5
4E
330
2
100
AcDbSymbolTableRecord
100
AcDbLayerTableRecord
  2
LEJANT_TEMIZHAVA
 70
     0
 62
     1
  6
Continuous
370
     0
390
F
347
3E
  0
LAYER
  5
34D
330
2
100
AcDbSymbolTableRecord
100
AcDbLayerTableRecord
  2
INIT_COORD
 70
     0
 62
   150
  6
Continuous
370
     0
390
F
347
3E
1001
AcAecLayerStandard
1000

1000

  0
ENDTAB
  0
TABLE
  2
STYLE
  5
3
330
0
100
AcDbSymbolTable
 70
     1
  0
STYLE
  5
11
330
3
100
AcDbSymbolTableRecord
100
AcDbTextStyleTableRecord
  2
Standard
 70
     0
 40
0.0
 41
1.0
 50
0.0
 71
     0
 42
2.5
  3
C:\WINDOWS\Font\TIMES.TTF
  4

  0
ENDTAB
  0
TABLE
  2
VIEW
  5
6
330
0
100
AcDbSymbolTable
 70
     0
  0
ENDTAB
  0
TABLE
  2
UCS
  5
7
330
0
100
AcDbSymbolTable
 70
     0
  0
ENDTAB
  0
TABLE
  2
APPID
  5
9
330
0
100
AcDbSymbolTable
 70
     4
  0
APPID
  5
12
330
9
100
AcDbSymbolTableRecord
100
AcDbRegAppTableRecord
  2
ACAD
 70
     0
  0
APPID
  5
2F1
330
9
100
AcDbSymbolTableRecord
100
AcDbRegAppTableRecord
  2
ACAD_MLEADERVER
 70
     0
  0
APPID
  5
2F7
330
9
100
AcDbSymbolTableRecord
100
AcDbRegAppTableRecord
  2
AcAecLayerStandard
 70
     0
  0
APPID
  5
2FA
330
9
100
AcDbSymbolTableRecord
100
AcDbRegAppTableRecord
  2
ACAD_NAV_VCDISPLAY
 70
     0
  0
ENDTAB
  0
TABLE
  2
DIMSTYLE
  5
A
330
0
100
AcDbSymbolTable
 70
     1
100
AcDbDimStyleTable
  0
DIMSTYLE
105
27
330
A
100
AcDbSymbolTableRecord
100
AcDbDimStyleTableRecord
  2
ISO-25
 70
     0
 41
2.5
 42
0.625
 43
3.75
 44
1.25
 73
     0
 74
     0
 77
     1
 78
     8
140
2.5
141
2.5
143
0.03937007874016
147
0.625
171
     3
172
     1
178
     0
271
     2
272
     2
274
     3
278
    44
283
     0
284
     8
340
11
  0
ENDTAB
  0
TABLE
  2
BLOCK_RECORD
  5
1
330
0
100
AcDbSymbolTable
 70
     5
  0
BLOCK_RECORD
  5
1F
330
1
100
AcDbSymbolTableRecord
100
AcDbBlockTableRecord
  2
*Model_Space
340
22
 70
     0
280
     1
281
     0
  0
BLOCK_RECORD
  5
1B
330
1
100
AcDbSymbolTableRecord
100
AcDbBlockTableRecord
  2
*Paper_Space
340
1E
 70
     0
280
     1
281
     0
  0
BLOCK_RECORD
  5
23
330
1
100
AcDbSymbolTableRecord
100
AcDbBlockTableRecord
  2
*Paper_Space0
340
26
 70
     0
280
     1
281
     0
  0
BLOCK_RECORD
  5
FA
330
1
100
AcDbSymbolTableRecord
100
AcDbBlockTableRecord
  2
1
340
0
 70
     0
280
     1
281
     0
  0
BLOCK_RECORD
  5
162
330
1
100
AcDbSymbolTableRecord
100
AcDbBlockTableRecord
  2
240
340
0
 70
     0
280
     1
281
     0
  0
BLOCK_RECORD
  5
1E7
330
1
100
AcDbSymbolTableRecord
100
AcDbBlockTableRecord
  2
60
340
0
 70
     0
280
     1
281
     0
  0
ENDTAB
  0
ENDSEC
  0
SECTION
  2
BLOCKS
  0
BLOCK
  5
20
330
1F
100
AcDbEntity
  8
0
100
AcDbBlockBegin
  2
*Model_Space
 70
     0
 10
0.0
 20
0.0
 30
0.0
  3
*Model_Space
  1

  0
ENDBLK
  5
21
330
1F
100
AcDbEntity
  8
0
100
AcDbBlockEnd
  0
BLOCK
  5
1C
330
1B
100
AcDbEntity
 67
     1
  8
0
100
AcDbBlockBegin
  2
*Paper_Space
 70
     0
 10
0.0
 20
0.0
 30
0.0
  3
*Paper_Space
  1

  0
ENDBLK
  5
1D
330
1B
100
AcDbEntity
 67
     1
  8
0
100
AcDbBlockEnd
  0
BLOCK
  5
24
330
23
100
AcDbEntity
  8
0
100
AcDbBlockBegin
  2
*Paper_Space0
 70
     0
 10
0.0
 20
0.0
 30
0.0
  3
*Paper_Space0
  1

  0
ENDBLK
  5
25
330
23
100
AcDbEntity
  8
0
100
AcDbBlockEnd
  0
BLOCK
  5
FB
330
FA
100
AcDbEntity
  8
0
100
AcDbBlockBegin
  2
1
 70
     0
 10
0.0
 20
0.0
 30
0.0
  3
1
  1

  0
LINE
  5
FD
330
FA
100
AcDbEntity
  8
DESANDRE_316_266
370
     0
100
AcDbLine
 10
0.0
 20
-2.953846064347488
 30
280.9082641601562
 11
0.0
 21
2.953846064347488
 31
280.9082641601562
  0
LINE
  5
FE
330
FA
100
AcDbEntity
  8
DESANDRE_316_266
370
     0
100
AcDbLine
 10
0.0
 20
2.584615306304052
 30
280.9082641601562
 11
0.369230758043436
 21
0.7384615160868719
 31
280.9082641601562
  0
LINE
  5
FF
330
FA
100
AcDbEntity
  8
DESANDRE_316_266
370
     0
100
AcDbLine
 10
0.369230758043436
 20
0.7384615160868719
 30
280.9082641601562
 11
0.0
 21
1.107692274130308
 31
280.9082641601562
  0
LINE
  5
100
330
FA
100
AcDbEntity
  8
DESANDRE_316_266
370
     0
100
AcDbLine
 10
0.0
 20
1.107692274130308
 30
280.9082641601562
 11
-0.369230758043436
 21
0.7384615160868719
 31
280.9082641601562
  0
LINE
  5
101
330
FA
100
AcDbEntity
  8
DESANDRE_316_266
370
     0
100
AcDbLine
 10
-0.369230758043436
 20
0.7384615160868719
 30
280.9082641601562
 11
0.0
 21
2.584615306304052
 31
280.9082641601562
  0
ENDBLK
  5
FC
330
FA
100
AcDbEntity
  8
0
100
AcDbBlockEnd
  0
BLOCK
  5
163
330
162
100
AcDbEntity
  8
0
100
AcDbBlockBegin
  2
240
 70
     0
 10
0.0
 20
0.0
 30
0.0
  3
240
  1

  0
LINE
  5
165
330
162
100
AcDbEntity
  8
GRID
370
     0
100
AcDbLine
 10
-2.5
 20
0.0
 30
280.9082641601562
 11
-0.625
 21
0.0
 31
280.9082641601562
  0
POINT
  5
166
330
162
100
AcDbEntity
  8
GRID
370
     0
100
AcDbPoint
 10
0.0
 20
0.0
 30
280.9082641601562
  0
LINE
  5
167
330
162
100
AcDbEntity
  8
GRID
370
     0
100
AcDbLine
 10
0.625
 20
0.0
 30
280.9082641601562
 11
2.5
 21
0.0
 31
280.9082641601562
  0
LINE
  5
168
330
162
100
AcDbEntity
  8
GRID
370
     0
100
AcDbLine
 10
0.0
 20
2.5
 30
280.9082641601562
 11
0.0
 21
0.625
 31
280.9082641601562
  0
LINE
  5
169
330
162
100
AcDbEntity
  8
GRID
370
     0
100
AcDbLine
 10
0.0
 20
-0.625
 30
280.9082641601562
 11
0.0
 21
-2.5
 31
280.9082641601562
  0
ENDBLK
  5
164
330
162
100
AcDbEntity
  8
0
100
AcDbBlockEnd
  0
BLOCK
  5
1E8
330
1E7
100
AcDbEntity
  8
0
100
AcDbBlockBegin
  2
60
 70
     0
 10
0.0
 20
0.0
 30
0.0
  3
60
  1

  0
LINE
  5
1EA
330
1E7
100
AcDbEntity
  8
0
370
     0
100
AcDbLine
 10
2.5
 20
3.5
 30
280.9082641601562
 11
-2.5
 21
-3.5
 31
280.9082641601562
  0
LINE
  5
1EB
330
1E7
100
AcDbEntity
  8
0
370
     0
100
AcDbLine
 10
-2.5
 20
3.5
 30
280.9082641601562
 11
2.5
 21
-3.5
 31
280.9082641601562
  0
LINE
  5
1EC
330
1E7
100
AcDbEntity
  8
0
370
     0
100
AcDbLine
 10
2.5
 20
-3.5
 30
280.9082641601562
 11
3.0
 21
-4.25
 31
280.9082641601562
  0
LINE
  5
1ED
330
1E7
100
AcDbEntity
  8
0
370
     0
100
AcDbLine
 10
3.0
 20
-4.25
 30
280.9082641601562
 11
3.25
 21
-4.25
 31
280.9082641601562
  0
LINE
  5
1EE
330
1E7
100
AcDbEntity
  8
0
370
     0
100
AcDbLine
 10
3.25
 20
-4.25
 30
280.9082641601562
 11
3.5
 21
-4.0
 31
280.9082641601562
  0
LINE
  5
1EF
330
1E7
100
AcDbEntity
  8
0
370
     0
100
AcDbLine
 10
3.5
 20
-4.0
 30
280.9082641601562
 11
4.0
 21
-3.75
 31
280.9082641601562
  0
LINE
  5
1F0
330
1E7
100
AcDbEntity
  8
0
370
     0
100
AcDbLine
 10
4.0
 20
-3.75
 30
280.9082641601562
 11
4.25
 21
-3.5
 31
280.9082641601562
  0
LINE
  5
1F1
330
1E7
100
AcDbEntity
  8
0
370
     0
100
AcDbLine
 10
4.25
 20
-3.5
 30
280.9082641601562
 11
4.0
 21
-2.75
 31
280.9082641601562
  0
LINE
  5
1F2
330
1E7
100
AcDbEntity
  8
0
370
     0
100
AcDbLine
 10
4.0
 20
-2.75
 30
280.9082641601562
 11
3.75
 21
-2.75
 31
280.9082641601562
  0
LINE
  5
1F3
330
1E7
100
AcDbEntity
  8
0
370
     0
100
AcDbLine
 10
3.75
 20
-2.75
 30
280.9082641601562
 11
3.25
 21
-3.0
 31
280.9082641601562
  0
LINE
  5
1F4
330
1E7
100
AcDbEntity
  8
0
370
     0
100
AcDbLine
 10
3.25
 20
-3.0
 30
280.9082641601562
 11
3.0
 21
-3.25
 31
280.9082641601562
  0
LINE
  5
1F5
330
1E7
100
AcDbEntity
  8
0
370
     0
100
AcDbLine
 10
3.0
 20
-3.25
 30
280.9082641601562
 11
2.75
 21
-3.25
 31
280.9082641601562
  0
LINE
  5
1F6
330
1E7
100
AcDbEntity
  8
0
370
     0
100
AcDbLine
 10
2.75
 20
-3.25
 30
280.9082641601562
 11
2.5
 21
-3.5
 31
280.9082641601562
  0
LINE
  5
1F7
330
1E7
100
AcDbEntity
  8
0
370
     0
100
AcDbLine
 10
-2.5
 20
-3.5
 30
280.9082641601562
 11
-3.0
 21
-4.25
 31
280.9082641601562
  0
LINE
  5
1F8
330
1E7
100
AcDbEntity
  8
0
370
     0
100
AcDbLine
 10
-3.0
 20
-4.25
 30
280.9082641601562
 11
-3.25
 21
-4.25
 31
280.9082641601562
  0
LINE
  5
1F9
330
1E7
100
AcDbEntity
  8
0
370
     0
100
AcDbLine
 10
-3.25
 20
-4.25
 30
280.9082641601562
 11
-3.5
 21
-4.0
 31
280.9082641601562
  0
LINE
  5
1FA
330
1E7
100
AcDbEntity
  8
0
370
     0
100
AcDbLine
 10
-3.5
 20
-4.0
 30
280.9082641601562
 11
-4.0
 21
-3.75
 31
280.9082641601562
  0
LINE
  5
1FB
330
1E7
100
AcDbEntity
  8
0
370
     0
100
AcDbLine
 10
-4.0
 20
-3.75
 30
280.9082641601562
 11
-4.25
 21
-3.5
 31
280.9082641601562
  0
LINE
  5
1FC
330
1E7
100
AcDbEntity
  8
0
370
     0
100
AcDbLine
 10
-4.0
 20
-2.75
 30
280.9082641601562
 11
-3.75
 21
-2.75
 31
280.9082641601562
  0
LINE
  5
1FD
330
1E7
100
AcDbEntity
  8
0
370
     0
100
AcDbLine
 10
-3.75
 20
-2.75
 30
280.9082641601562
 11
-3.25
 21
-3.0
 31
280.9082641601562
  0
LINE
  5
1FE
330
1E7
100
AcDbEntity
  8
0
370
     0
100
AcDbLine
 10
-3.25
 20
-3.0
 30
280.9082641601562
 11
-3.0
 21
-3.25
 31
280.9082641601562
  0
LINE
  5
1FF
330
1E7
100
AcDbEntity
  8
0
370
     0
100
AcDbLine
 10
-3.0
 20
-3.25
 30
280.9082641601562
 11
-2.75
 21
-3.25
 31
280.9082641601562
  0
LINE
  5
200
330
1E7
100
AcDbEntity
  8
0
370
     0
100
AcDbLine
 10
-2.75
 20
-3.25
 30
280.9082641601562
 11
-2.5
 21
-3.5
 31
280.9082641601562
  0
LINE
  5
201
330
1E7
100
AcDbEntity
  8
0
370
     0
100
AcDbLine
 10
2.75
 20
-3.25
 30
280.9082641601562
 11
2.75
 21
-4.0
 31
280.9082641601562
  0
LINE
  5
202
330
1E7
100
AcDbEntity
  8
0
370
     0
100
AcDbLine
 10
3.0
 20
-3.25
 30
280.9082641601562
 11
3.0
 21
-4.25
 31
280.9082641601562
  0
LINE
  5
203
330
1E7
100
AcDbEntity
  8
0
370
     0
100
AcDbLine
 10
3.25
 20
-4.25
 30
280.9082641601562
 11
3.25
 21
-3.0
 31
280.9082641601562
  0
LINE
  5
204
330
1E7
100
AcDbEntity
  8
0
370
     0
100
AcDbLine
 10
3.5
 20
-4.0
 30
280.9082641601562
 11
3.5
 21
-3.0
 31
280.9082641601562
  0
LINE
  5
205
330
1E7
100
AcDbEntity
  8
0
370
     0
100
AcDbLine
 10
3.75
 20
-2.75
 30
280.9082641601562
 11
3.75
 21
-3.75
 31
280.9082641601562
  0
LINE
  5
206
330
1E7
100
AcDbEntity
  8
0
370
     0
100
AcDbLine
 10
4.0
 20
-3.75
 30
280.9082641601562
 11
4.0
 21
-2.75
 31
280.9082641601562
  0
LINE
  5
207
330
1E7
100
AcDbEntity
  8
0
370
     0
100
AcDbLine
 10
3.0
 20
-4.0
 30
280.9082641601562
 11
3.5
 21
-4.0
 31
280.9082641601562
  0
LINE
  5
208
330
1E7
100
AcDbEntity
  8
0
370
     0
100
AcDbLine
 10
2.75
 20
-4.0
 30
280.9082641601562
 11
3.0
 21
-4.0
 31
280.9082641601562
  0
LINE
  5
209
330
1E7
100
AcDbEntity
  8
0
370
     0
100
AcDbLine
 10
2.75
 20
-3.75
 30
280.9082641601562
 11
4.0
 21
-3.75
 31
280.9082641601562
  0
LINE
  5
20A
330
1E7
100
AcDbEntity
  8
0
370
     0
100
AcDbLine
 10
4.25
 20
-3.5
 30
280.9082641601562
 11
2.5
 21
-3.5
 31
280.9082641601562
  0
LINE
  5
20B
330
1E7
100
AcDbEntity
  8
0
370
     0
100
AcDbLine
 10
3.0
 20
-3.25
 30
280.9082641601562
 11
4.0
 21
-3.25
 31
280.9082641601562
  0
LINE
  5
20C
330
1E7
100
AcDbEntity
  8
0
370
     0
100
AcDbLine
 10
3.25
 20
-3.0
 30
280.9082641601562
 11
4.0
 21
-3.0
 31
280.9082641601562
  0
LINE
  5
20D
330
1E7
100
AcDbEntity
  8
0
370
     0
100
AcDbLine
 10
-2.5
 20
-3.5
 30
280.9082641601562
 11
-4.25
 21
-3.5
 31
280.9082641601562
  0
LINE
  5
20E
330
1E7
100
AcDbEntity
  8
0
370
     0
100
AcDbLine
 10
-3.25
 20
-3.0
 30
280.9082641601562
 11
-4.0
 21
-3.0
 31
280.9082641601562
  0
LINE
  5
20F
330
1E7
100
AcDbEntity
  8
0
370
     0
100
AcDbLine
 10
-2.75
 20
-3.75
 30
280.9082641601562
 11
-4.0
 21
-3.75
 31
280.9082641601562
  0
LINE
  5
210
330
1E7
100
AcDbEntity
  8
0
370
     0
100
AcDbLine
 10
-3.0
 20
-4.0
 30
280.9082641601562
 11
-3.5
 21
-4.0
 31
280.9082641601562
  0
LINE
  5
211
330
1E7
100
AcDbEntity
  8
0
370
     0
100
AcDbLine
 10
-2.75
 20
-4.0
 30
280.9082641601562
 11
-2.75
 21
-3.25
 31
280.9082641601562
  0
LINE
  5
212
330
1E7
100
AcDbEntity
  8
0
370
     0
100
AcDbLine
 10
-2.75
 20
-4.0
 30
280.9082641601562
 11
-3.25
 21
-4.0
 31
280.9082641601562
  0
LINE
  5
213
330
1E7
100
AcDbEntity
  8
0
370
     0
100
AcDbLine
 10
-3.0
 20
-4.25
 30
280.9082641601562
 11
-3.0
 21
-3.25
 31
280.9082641601562
  0
LINE
  5
214
330
1E7
100
AcDbEntity
  8
0
370
     0
100
AcDbLine
 10
-3.25
 20
-4.25
 30
280.9082641601562
 11
-3.25
 21
-3.0
 31
280.9082641601562
  0
LINE
  5
215
330
1E7
100
AcDbEntity
  8
0
370
     0
100
AcDbLine
 10
-3.5
 20
-4.0
 30
280.9082641601562
 11
-3.5
 21
-3.0
 31
280.9082641601562
  0
LINE
  5
216
330
1E7
100
AcDbEntity
  8
0
370
     0
100
AcDbLine
 10
-3.75
 20
-3.75
 30
280.9082641601562
 11
-3.75
 21
-2.75
 31
280.9082641601562
  0
LINE
  5
217
330
1E7
100
AcDbEntity
  8
0
370
     0
100
AcDbLine
 10
-4.0
 20
-2.75
 30
280.9082641601562
 11
-4.0
 21
-3.75
 31
280.9082641601562
  0
LINE
  5
218
330
1E7
100
AcDbEntity
  8
0
370
     0
100
AcDbLine
 10
-4.25
 20
-3.5
 30
280.9082641601562
 11
-4.0
 21
-2.75
 31
280.9082641601562
  0
LINE
  5
219
330
1E7
100
AcDbEntity
  8
0
370
     0
100
AcDbLine
 10
-4.0
 20
-3.25
 30
280.9082641601562
 11
-3.0
 21
-3.25
 31
280.9082641601562
  0
ENDBLK
  5
1E9
330
1E7
100
AcDbEntity
  8
0
100
AcDbBlockEnd
  0
ENDSEC
  0
SECTION
  2
ENTITIES
  0
LINE
  5
C6
330
1F
100
AcDbEntity
  8
DESANDRE_323_289
370
     0
100
AcDbLine
 10
406778.3436982181
 20
4590221.340270642
 30
316.0
 11
406748.2025145022
 21
4590228.229684062
 31
316.0
  0
LINE
  5
C7
330
1F
100
AcDbEntity
  8
DESANDRE_323_289
370
     0
100
AcDbLine
 10
406777.7866362143
 20
4590218.903124375
 30
316.0
 11
406747.6199374038
 21
4590225.798369818
 31
316.0
  0
LINE
  5
C8
330
1F
100
AcDbEntity
  8
DESANDRE_323_289
370
     0
100
AcDbLine
 10
406748.2025145022
 20
4590228.229684062
 30
316.0
 11
406718.0199003576
 21
4590235.796835187
 31
316.0
  0
LINE
  5
C9
330
1F
100
AcDbEntity
  8
DESANDRE_323_289
370
     0
100
AcDbLine
 10
406747.6199374038
 20
4590225.798369818
 30
316.0
 11
406717.3223607861
 21
4590233.394343443
 31
316.0
  0
LINE
  5
CA
330
1F
100
AcDbEntity
  8
DESANDRE_323_289
370
     0
100
AcDbLine
 10
406718.0199003576
 20
4590235.796835187
 30
316.0
 11
406706.7209716865
 21
4590239.534826627
 31
316.0
  0
LINE
  5
CB
330
1F
100
AcDbEntity
  8
DESANDRE_323_289
370
     0
100
AcDbLine
 10
406717.3223607861
 20
4590233.394343443
 30
316.0
 11
406705.7042940973
 21
4590237.237914378
 31
316.0
  0
LINE
  5
CC
330
1F
100
AcDbEntity
  8
DESANDRE_323_289
370
     0
100
AcDbLine
 10
406706.7209716865
 20
4590239.534826627
 30
316.0
 11
406702.8256348736
 21
4590241.733807086
 31
316.0
  0
LINE
  5
CD
330
1F
100
AcDbEntity
  8
DESANDRE_323_289
370
     0
100
AcDbLine
 10
406705.7042940973
 20
4590237.237914378
 30
316.0
 11
406701.206128274
 21
4590239.777201536
 31
316.0
  0
LINE
  5
CE
330
1F
100
AcDbEntity
  8
DAMAR_PAPAZ
370
     0
100
AcDbLine
 10
406708.2618791343
 20
4590248.486641753
 30
316.0
 11
406748.7919249446
 21
4590217.920232206
 31
316.0
  0
LINE
  5
CF
330
1F
100
AcDbEntity
  8
DAMAR_PAPAZ
370
     0
100
AcDbLine
 10
406707.8333685523
 20
4590251.94107124
 30
316.0
 11
406750.3043834414
 21
4590219.910847511
 31
316.0
  0
LINE
  5
D0
330
1F
100
AcDbEntity
  8
DAMAR_PAPAZ
370
     0
100
AcDbLine
 10
406748.7919249446
 20
4590217.920232206
 30
316.0
 11
406779.9629196741
 21
4590194.060302318
 31
316.0
  0
LINE
  5
D1
330
1F
100
AcDbEntity
  8
DAMAR_PAPAZ
370
     0
100
AcDbLine
 10
406750.3043834414
 20
4590219.910847511
 30
316.0
 11
406783.6375089504
 21
4590194.395908239
 31
316.0
  0
LINE
  5
D2
330
1F
100
AcDbEntity
  8
DAMAR_PAPAZ
370
     0
100
AcDbLine
 10
406779.9629196741
 20
4590194.060302318
 30
316.0
 11
406770.6759074443
 21
4590183.793253621
 31
316.0
  0
LINE
  5
D3
330
1F
100
AcDbEntity
  8
DAMAR_PAPAZ
370
     0
100
AcDbLine
 10
406783.6375089504
 20
4590194.395908239
 30
316.0
 11
406771.8760190695
 21
4590181.393256109
 31
316.0
  0
LINE
  5
D4
330
1F
100
AcDbEntity
  8
DAMAR_PAPAZ
370
     0
100
AcDbLine
 10
406770.6759074443
 20
4590183.793253621
 30
316.0
 11
406746.0779037387
 21
4590181.526438834
 31
316.0
  0
LINE
  5
D5
330
1F
100
AcDbEntity
  8
DAMAR_PAPAZ
370
     0
100
AcDbLine
 10
406771.8760190695
 20
4590181.393256109
 30
316.0
 11
406750.0452590603
 21
4590179.381455063
 31
316.0
  0
LINE
  5
D6
330
1F
100
AcDbEntity
  8
DAMAR_PAPAZ
370
     0
100
AcDbLine
 10
406746.0779037387
 20
4590181.526438834
 30
316.0
 11
406739.589812443
 21
4590181.526438834
 31
316.0
  0
LINE
  5
D7
330
1F
100
AcDbEntity
  8
DAMAR_PAPAZ
370
     0
100
AcDbLine
 10
406746.1928532305
 20
4590179.026438834
 30
316.0
 11
406739.9105327129
 21
4590179.026438834
 31
316.0
  0
LINE
  5
D8
330
1F
100
AcDbEntity
  8
DAMAR_PAPAZ
370
     0
100
AcDbLine
 10
406739.589812443
 20
4590181.526438834
 30
316.0
 11
406734.1351447863
 21
4590180.103482055
 31
316.0
  0
LINE
  5
D9
330
1F
100
AcDbEntity
  8
DAMAR_PAPAZ
370
     0
100
AcDbLine
 10
406739.9105327129
 20
4590179.026438834
 30
316.0
 11
406733.4233503413
 21
4590177.207347207
 31
316.0
  0
TEXT
  5
F6
330
1F
100
AcDbEntity
  8
DAMAR_PAPAZ
370
     0
100
AcDbText
 10
406785.8296997112
 20
4590194.022274892
 30
316.0
 40
1.5
  1
+266.72
100
AcDbText
  0
TEXT
  5
F7
330
1F
100
AcDbEntity
  8
DAMAR_PAPAZ
370
     0
100
AcDbText
 10
406708.0270094246
 20
4590256.220607556
 30
316.0
 40
1.5
  1
+289.54
100
AcDbText
  0
TEXT
  5
F8
330
1F
100
AcDbEntity
  8
DESANDRE_323_289
370
     0
100
AcDbText
 10
406688.9922818324
 20
4590241.107214361
 30
316.0
 40
1.5
  1
+289.45
100
AcDbText
  0
TEXT
  5
F9
330
1F
100
AcDbEntity
  8
DESANDRE_316_266
370
     0
100
AcDbText
 10
406843.8329839167
 20
4590200.705403139
 30
316.0
 40
1.5
  1
30
100
AcDbText
  0
LINE
  5
103
330
1F
100
AcDbEntity
  8
DAMAR_PAPAZ
370
     0
100
AcDbLine
 10
406707.8333685523
 20
4590251.94107124
 30
316.0
 11
406699.5842879368
 21
4590241.694166413
 31
316.0
  0
LINE
  5
104
330
1F
100
AcDbEntity
  8
DAMAR_PAPAZ
370
     0
100
AcDbLine
 10
406708.2618791343
 20
4590248.486641753
 30
316.0
 11
406702.8256348736
 21
4590241.733807086
 31
316.0
  0
TEXT
  5
119
330
1F
100
AcDbEntity
  8
DESANDRE_323_289
370
     0
100
AcDbText
 10
406778.5293430081
 20
4590223.995147882
 30
316.0
 40
1.5
  1
+323.05
100
AcDbText
  0
TEXT
  5
11A
330
1F
100
AcDbEntity
  8
DESANDRE_316_266
370
     0
100
AcDbText
 10
406854.3886429615
 20
4590207.193341425
 30
316.0
 40
1.5
  1
+315.52
100
AcDbText
  0
TEXT
  5
12A
330
1F
100
AcDbEntity
  8
0
370
     0
100
AcDbText
 10
406775.712412732
 20
4590170.893039168
 30
316.0
 40
1.5
  1
267.26
100
AcDbText
  0
LINE
  5
12E
330
1F
100
AcDbEntity
  8
0
370
     0
100
AcDbLine
 10
406751.9387624084
 20
4590173.324984142
 30
316.0
 11
406760.9897797006
 21
4590174.048194707
 31
316.0
  0
LINE
  5
12F
330
1F
100
AcDbEntity
  8
0
370
     0
100
AcDbLine
 10
406753.0095389113
 20
4590175.918511312
 30
316.0
 11
406761.4261771119
 21
4590176.591032584
 31
316.0
  0
LINE
  5
130
330
1F
100
AcDbEntity
  8
0
370
     0
100
AcDbLine
 10
406760.9897797006
 20
4590174.048194707
 30
316.0
 11
406768.986475667
 21
4590170.48035554
 31
316.0
  0
LINE
  5
131
330
1F
100
AcDbEntity
  8
0
370
     0
100
AcDbLine
 10
406761.4261771119
 20
4590176.591032584
 30
316.0
 11
406765.326527939
 21
4590174.85083582
 31
316.0
  0
LINE
  5
132
330
1F
100
AcDbEntity
  8
0
370
     0
100
AcDbLine
 10
406768.986475667
 20
4590170.48035554
 30
316.0
 11
406774.5101502201
 21
4590173.012032587
 31
316.0
  0
LINE
  5
133
330
1F
100
AcDbEntity
  8
0
370
     0
100
AcDbLine
 10
406768.9726173375
 20
4590173.224081393
 30
316.0
 11
406773.4850233315
 21
4590175.292261655
 31
316.0
  0
LINE
  5
134
330
1F
100
AcDbEntity
  8
0
370
     0
100
AcDbLine
 10
406774.5101502201
 20
4590173.012032587
 30
316.0
 11
406850.0408170889
 21
4590206.393257635
 31
316.0
  0
LINE
  5
135
330
1F
100
AcDbEntity
  8
0
370
     0
100
AcDbLine
 10
406773.4850233315
 20
4590175.292261655
 30
316.0
 11
406808.8404191975
 21
4590190.940242672
 31
316.0
  0
LINE
  5
150
330
1F
100
AcDbEntity
  8
DAMAR_PAPAZ
370
     0
100
AcDbLine
 10
406734.1351447863
 20
4590180.103482055
 30
316.0
 11
406728.3344344962
 21
4590176.555456141
 31
316.0
  0
LINE
  5
151
330
1F
100
AcDbEntity
  8
DAMAR_PAPAZ
370
     0
100
AcDbLine
 10
406733.4233503413
 20
4590177.207347207
 30
316.0
 11
406714.7807819567
 21
4590165.326332122
 31
316.0
  0
LINE
  5
152
330
1F
100
AcDbEntity
  8
DAMAR_PAPAZ
370
     0
100
AcDbLine
 10
406713.7845000954
 20
4590167.655934927
 30
316.0
 11
406702.6206035246
 21
4590164.913925243
 31
316.0
  0
LINE
  5
153
330
1F
100
AcDbEntity
  8
DAMAR_PAPAZ
370
     0
100
AcDbLine
 10
406714.7807819567
 20
4590165.326332122
 30
316.0
 11
406707.0767964698
 21
4590163.434125161
 31
316.0
  0
LINE
  5
154
330
1F
100
AcDbEntity
  8
DAMAR_PAPAZ
370
     0
100
AcDbLine
 10
406702.6206035246
 20
4590164.913925243
 30
316.0
 11
406689.2094590947
 21
4590145.849063063
 31
316.0
  0
LINE
  5
155
330
1F
100
AcDbEntity
  8
DAMAR_PAPAZ
370
     0
100
AcDbLine
 10
406704.1264863626
 20
4590162.70948759
 30
316.0
 11
406690.0488458633
 21
4590142.697155508
 31
316.0
  0
LINE
  5
156
330
1F
100
AcDbEntity
  8
DAMAR_PAPAZ
370
     0
100
AcDbLine
 10
406688.5872259082
 20
4590144.964515886
 30
316.0
 11
406680.0687990519
 21
4590143.348952172
 31
316.0
  0
LINE
  5
157
330
1F
100
AcDbEntity
  8
DAMAR_PAPAZ
370
     0
100
AcDbLine
 10
406690.0488458633
 20
4590142.697155508
 30
316.0
 11
406679.3856368288
 21
4590140.67482276
 31
316.0
  0
LINE
  5
158
330
1F
100
AcDbEntity
  8
DAMAR_PAPAZ
370
     0
100
AcDbLine
 10
406680.0687990519
 20
4590143.348952172
 30
316.0
 11
406675.2817292489
 21
4590147.281188082
 31
316.0
  0
LINE
  5
159
330
1F
100
AcDbEntity
  8
DAMAR_PAPAZ
370
     0
100
AcDbLine
 10
406679.3856368288
 20
4590140.67482276
 30
316.0
 11
406674.9126065467
 21
4590144.349097635
 31
316.0
  0
LINE
  5
15A
330
1F
100
AcDbEntity
  8
DAMAR_PAPAZ
370
     0
100
AcDbLine
 10
406675.2817292489
 20
4590147.281188082
 30
316.0
 11
406647.8823861585
 21
4590134.470176339
 31
316.0
  0
LINE
  5
15B
330
1F
100
AcDbEntity
  8
DAMAR_PAPAZ
370
     0
100
AcDbLine
 10
406674.9126065467
 20
4590144.349097635
 30
316.0
 11
406649.4671371442
 21
4590132.517553485
 31
316.0
  0
LINE
  5
15C
330
1F
100
AcDbEntity
  8
DAMAR_PAPAZ
370
     0
100
AcDbLine
 10
406647.8823861585
 20
4590134.470176339
 30
316.0
 11
406644.5227026644
 21
4590132.884998943
 31
316.0
  0
LINE
  5
15D
330
1F
100
AcDbEntity
  8
DAMAR_PAPAZ
370
     0
100
AcDbLine
 10
406649.4671371442
 20
4590132.517553485
 30
316.0
 11
406646.0489723152
 21
4590130.90497345
 31
316.0
  0
LINE
  5
15E
330
1F
100
AcDbEntity
  8
DAMAR_PAPAZ
370
     0
100
AcDbLine
 10
406689.2094590947
 20
4590145.849063063
 30
316.0
 11
406688.5872259082
 21
4590144.964515886
 31
316.0
  0
LINE
  5
15F
330
1F
100
AcDbEntity
  8
0
370
     0
100
AcDbLine
 10
406753.0095389113
 20
4590175.918511312
 30
316.0
 11
406750.0452590603
 21
4590179.381455063
 31
316.0
  0
LINE
  5
160
330
1F
100
AcDbEntity
  8
0
370
     0
100
AcDbLine
 10
406751.9387624084
 20
4590173.324984142
 30
316.0
 11
406746.9950375371
 21
4590179.100363664
 31
316.0
  0
LINE
  5
161
330
1F
100
AcDbEntity
  8
DAMAR_PAPAZ
370
     0
100
AcDbLine
 10
406746.9950375371
 20
4590179.100363664
 30
316.0
 11
406746.1928532305
 21
4590179.026438834
 31
316.0
  0
TEXT
  5
16B
330
1F
100
AcDbEntity
  8
DAMAR_PAPAZ
370
     0
100
AcDbText
 10
406655.542794794
 20
4590132.996348748
 30
316.0
 40
1.5
  1
269.00
100
AcDbText
  0
LINE
  5
1B0
330
1F
100
AcDbEntity
  8
DAMAR_PAPAZ
370
     0
100
AcDbLine
 10
406707.0767964698
 20
4590163.434125161
 30
316.0
 11
406704.1264863626
 21
4590162.70948759
 31
316.0
  0
LINE
  5
1B5
330
1F
100
AcDbEntity
  8
DAMAR_PAPAZ
370
     0
100
AcDbLine
 10
406728.3344344962
 20
4590176.555456141
 30
316.0
 11
406710.5301114632
 21
4590190.271777512
 31
316.0
  0
LINE
  5
1B6
330
1F
100
AcDbEntity
  8
DAMAR_PAPAZ
370
     0
100
AcDbLine
 10
406726.0509709505
 20
4590175.158767214
 30
316.0
 11
406708.7123174065
 21
4590188.516340186
 31
316.0
  0
LINE
  5
1B7
330
1F
100
AcDbEntity
  8
DAMAR_PAPAZ
370
     0
100
AcDbLine
 10
406710.5301114632
 20
4590190.271777512
 30
316.0
 11
406707.8278231243
 21
4590194.044783871
 31
316.0
  0
LINE
  5
1B8
330
1F
100
AcDbEntity
  8
DAMAR_PAPAZ
370
     0
100
AcDbLine
 10
406708.7123174065
 20
4590188.516340186
 30
316.0
 11
406705.7953469091
 21
4590192.589091446
 31
316.0
  0
LINE
  5
1B9
330
1F
100
AcDbEntity
  8
DAMAR_PAPAZ
370
     0
100
AcDbLine
 10
406726.0509709505
 20
4590175.158767214
 30
316.0
 11
406713.7845000954
 21
4590167.655934927
 31
316.0
  0
LINE
  5
1BE
330
1F
100
AcDbEntity
  8
DAMAR_PAPAZ
370
     0
100
AcDbLine
 10
406644.5227026644
 20
4590132.884998943
 30
316.0
 11
406638.4182682661
 21
4590128.179497427
 31
316.0
  0
LINE
  5
1BF
330
1F
100
AcDbEntity
  8
DAMAR_PAPAZ
370
     0
100
AcDbLine
 10
406646.0489723152
 20
4590130.90497345
 30
316.0
 11
406639.4899976743
 21
4590125.849097164
 31
316.0
  0
LINE
  5
1C0
330
1F
100
AcDbEntity
  8
DAMAR_PAPAZ
370
     0
100
AcDbLine
 10
406638.4182682661
 20
4590128.179497427
 30
316.0
 11
406627.9493316956
 21
4590125.785893981
 31
316.0
  0
LINE
  5
1C1
330
1F
100
AcDbEntity
  8
DAMAR_PAPAZ
370
     0
100
AcDbLine
 10
406639.4899976743
 20
4590125.849097164
 30
316.0
 11
406629.8154450707
 21
4590123.833565372
 31
316.0
  0
LINE
  5
1C2
330
1F
100
AcDbEntity
  8
DAMAR_PAPAZ
370
     0
100
AcDbLine
 10
406627.9493316956
 20
4590125.785893981
 30
316.0
 11
406621.0922330728
 21
4590123.088019113
 31
316.0
  0
LINE
  5
1C3
330
1F
100
AcDbEntity
  8
DAMAR_PAPAZ
370
     0
100
AcDbLine
 10
406629.8154450707
 20
4590123.833565372
 30
316.0
 11
406621.7278369879
 21
4590120.651555634
 31
316.0
  0
LINE
  5
1C4
330
1F
100
AcDbEntity
  8
DAMAR_PAPAZ
370
     0
100
AcDbLine
 10
406621.0922330728
 20
4590123.088019113
 30
316.0
 11
406608.2535265912
 21
4590121.148200108
 31
316.0
  0
LINE
  5
1C5
330
1F
100
AcDbEntity
  8
DAMAR_PAPAZ
370
     0
100
AcDbLine
 10
406621.7278369879
 20
4590120.651555634
 30
316.0
 11
406610.0575936213
 21
4590119.060158812
 31
316.0
  0
LINE
  5
1C6
330
1F
100
AcDbEntity
  8
DAMAR_PAPAZ
370
     0
100
AcDbLine
 10
406608.2535265912
 20
4590121.148200108
 30
316.0
 11
406581.2450558745
 21
4590113.514633416
 31
316.0
  0
LINE
  5
1C7
330
1F
100
AcDbEntity
  8
DAMAR_PAPAZ
370
     0
100
AcDbLine
 10
406610.0575936213
 20
4590119.060158812
 30
316.0
 11
406580.7530009122
 21
4590110.777625336
 31
316.0
  0
LINE
  5
1C8
330
1F
100
AcDbEntity
  8
DAMAR_PAPAZ
370
     0
100
AcDbLine
 10
406578.3582114449
 20
4590112.712607603
 30
316.0
 11
406550.8175406598
 21
4590105.150700184
 31
316.0
  0
LINE
  5
1C9
330
1F
100
AcDbEntity
  8
DAMAR_PAPAZ
370
     0
100
AcDbLine
 10
406580.7530009122
 20
4590110.777625336
 30
316.0
 11
406551.5961022746
 21
4590102.771946396
 31
316.0
  0
LINE
  5
1CA
330
1F
100
AcDbEntity
  8
DAMAR_PAPAZ
370
     0
100
AcDbLine
 10
406550.8175406598
 20
4590105.150700184
 30
316.0
 11
406539.7870603885
 21
4590100.94014051
 31
316.0
  0
LINE
  5
1CB
330
1F
100
AcDbEntity
  8
DAMAR_PAPAZ
370
     0
100
AcDbLine
 10
406551.5961022746
 20
4590102.771946396
 30
316.0
 11
406534.6141578102
 21
4590096.28959125
 31
316.0
  0
LINE
  5
1CC
330
1F
100
AcDbEntity
  8
DAMAR_PAPAZ
370
     0
100
AcDbLine
 10
406539.7870603885
 20
4590100.94014051
 30
316.0
 11
406447.4412243102
 21
4590190.489874495
 31
316.0
  0
LINE
  5
1CD
330
1F
100
AcDbEntity
  8
DAMAR_PAPAZ
370
     0
100
AcDbLine
 10
406537.2102422907
 20
4590099.956516398
 30
316.0
 11
406445.7008371175
 21
4590188.695145429
 31
316.0
  0
LINE
  5
1CE
330
1F
100
AcDbEntity
  8
DAMAR_PAPAZ
370
     0
100
AcDbLine
 10
406537.2102422907
 20
4590099.956516398
 30
316.0
 11
406533.7226031609
 21
4590098.625213289
 31
316.0
  0
TEXT
  5
1CF
330
1F
100
AcDbEntity
  8
DAMAR_PAPAZ
370
     0
100
AcDbText
 10
406448.6531524982
 20
4590193.444655167
 30
316.0
 40
1.5
  1
+325.50
100
AcDbText
  0
LINE
  5
1D0
330
1F
100
AcDbEntity
  8
DAMAR_PAPAZ
370
     0
100
AcDbLine
 10
406698.9670040533
 20
4590240.927384089
 30
316.0
 11
406685.9833369594
 21
4590227.277887913
 31
316.0
  0
LINE
  5
1D1
330
1F
100
AcDbEntity
  8
DAMAR_PAPAZ
370
     0
100
AcDbLine
 10
406701.2823679759
 20
4590239.734162995
 30
316.0
 11
406687.9108777427
 21
4590225.676955313
 31
316.0
  0
LINE
  5
1D2
330
1F
100
AcDbEntity
  8
DAMAR_PAPAZ
370
     0
100
AcDbLine
 10
406685.9833369594
 20
4590227.277887913
 30
316.0
 11
406676.480396252
 21
4590214.128469958
 31
316.0
  0
LINE
  5
1D3
330
1F
100
AcDbEntity
  8
DAMAR_PAPAZ
370
     0
100
AcDbLine
 10
406687.9108777427
 20
4590225.676955313
 30
316.0
 11
406681.4927037996
 21
4590216.795993695
 31
316.0
  0
LINE
  5
1D5
330
1F
100
AcDbEntity
  8
DAMAR_PAPAZ
370
     0
100
AcDbLine
 10
406679.9591802618
 20
4590214.674025078
 30
316.0
 11
406685.7927180742
 21
4590206.895974662
 31
316.0
  0
LINE
  5
1D6
330
1F
100
AcDbEntity
  8
DAMAR_PAPAZ
370
     0
100
AcDbLine
 10
406681.4927037996
 20
4590216.795993695
 30
316.0
 11
406687.4471190067
 21
4590208.856773418
 31
316.0
  0
LINE
  5
1D7
330
1F
100
AcDbEntity
  8
DAMAR_PAPAZ
370
     0
100
AcDbLine
 10
406685.7927180742
 20
4590206.895974662
 30
316.0
 11
406690.0072584127
 21
4590204.731751245
 31
316.0
  0
LINE
  5
1D8
330
1F
100
AcDbEntity
  8
DAMAR_PAPAZ
370
     0
100
AcDbLine
 10
406687.4471190067
 20
4590208.856773418
 30
316.0
 11
406691.3670601692
 21
4590206.843830659
 31
316.0
  0
LINE
  5
1D9
330
1F
100
AcDbEntity
  8
DAMAR_PAPAZ
370
     0
100
AcDbLine
 10
406690.0072584127
 20
4590204.731751245
 30
316.0
 11
406703.115140711
 21
4590194.354677758
 31
316.0
  0
LINE
  5
1DA
330
1F
100
AcDbEntity
  8
DAMAR_PAPAZ
370
     0
100
AcDbLine
 10
406691.3670601692
 20
4590206.843830659
 30
316.0
 11
406704.641280036
 21
4590196.335073265
 31
316.0
  0
LINE
  5
1DB
330
1F
100
AcDbEntity
  8
DAMAR_PAPAZ
370
     0
100
AcDbLine
 10
406703.115140711
 20
4590194.354677758
 30
316.0
 11
406705.7953469091
 21
4590192.589091446
 31
316.0
  0
LINE
  5
1DC
330
1F
100
AcDbEntity
  8
DAMAR_PAPAZ
370
     0
100
AcDbLine
 10
406704.641280036
 20
4590196.335073265
 30
316.0
 11
406707.8278231243
 21
4590194.044783871
 31
316.0
  0
LINE
  5
1DD
330
1F
100
AcDbEntity
  8
DAMAR_PAPAZ
370
     0
100
AcDbLine
 10
406679.9591802618
 20
4590214.674025078
 30
316.0
 11
406678.5066452318
 21
4590212.664121956
 31
316.0
  0
LINE
  5
21E
330
1F
100
AcDbEntity
  8
DAMAR_PAPAZ
370
     0
100
AcDbLine
 10
406578.3582114449
 20
4590112.712607603
 30
316.0
 11
406581.2450558745
 21
4590113.514633416
 31
316.0
  0
LINE
  5
226
330
1F
100
AcDbEntity
  8
0
370
     0
100
AcDbLine
 10
406810.6276358241
 20
4590191.731248717
 30
316.0
 11
406808.8404191975
 21
4590190.940242672
 31
316.0
  0
LINE
  5
229
330
1F
100
AcDbEntity
  8
0
370
     0
100
AcDbLine
 10
406810.6276358241
 20
4590191.731248717
 30
316.0
 11
406848.9679829112
 21
4590208.700342366
 31
316.0
  0
LINE
  5
22D
330
1F
100
AcDbEntity
  8
0
370
     0
100
AcDbLine
 10
406767.3958679161
 20
4590173.92757048
 30
316.0
 11
406768.9726173375
 21
4590173.224081393
 31
316.0
  0
LWPOLYLINE
  5
22F
330
1F
100
AcDbEntity
  8
0
370
     0
100
AcDbPolyline
 90
        5
 70
     1
 43
0.0
 38
316.0
 10
406825.340918034
 20
4590203.0302754
 10
406835.9997491387
 20
4590202.875173014
 10
406836.1624174944
 20
4590214.053947099
 10
406825.5035863898
 20
4590214.209049486
 10
406825.340918034
 20
4590203.0302754
  0
TEXT
  5
232
330
1F
100
AcDbEntity
  8
0
370
     0
100
AcDbText
 10
406826.9735474638
 20
4590210.393009313
 30
316.0
 40
1.045135021209717
  1
CH
 50
359.1663171278209
100
AcDbText
  0
TEXT
  5
233
330
1F
100
AcDbEntity
  8
0
370
     0
100
AcDbText
 10
406831.9786674446
 20
4590210.247608171
 30
316.0
 40
1.045135021209717
  1
CO
 50
359.1663171278209
100
AcDbText
  0
TEXT
  5
234
330
1F
100
AcDbEntity
  8
0
370
     0
100
AcDbText
 10
406827.0637726794
 20
4590207.217985571
 30
316.0
 40
1.045135021209717
  1
H S
 50
359.1663171278209
100
AcDbText
  0
TEXT
  5
235
330
1F
100
AcDbEntity
  8
0
370
     0
100
AcDbText
 10
406832.50421229
 20
4590207.066249833
 30
316.0
 40
1.045135021209717
  1
O
 50
359.1663171278209
100
AcDbText
  0
TEXT
  5
236
330
1F
100
AcDbEntity
  8
0
370
     0
100
AcDbText
 10
406828.1292285569
 20
4590206.892052686
 30
316.0
 40
0.4877296686172483
  1
2
 50
359.1663171278209
100
AcDbText
  0
TEXT
  5
237
330
1F
100
AcDbEntity
  8
0
370
     0
100
AcDbText
 10
406828.9673783084
 20
4590209.917161235
 30
316.0
 40
0.4877296686172483
  1
4
 50
359.1663171278209
100
AcDbText
  0
TEXT
  5
239
330
1F
100
AcDbEntity
  8
0
370
     0
100
AcDbText
 10
406831.3040655741
 20
4590212.755503034
 30
316.0
 40
0.5574053525924683
  1
SICAKLIK
 50
359.1663171278209
100
AcDbText
  0
TEXT
  5
23A
330
1F
100
AcDbEntity
  8
0
370
     0
100
AcDbText
 10
406826.1731884015
 20
4590212.888492924
 30
316.0
 40
0.5574053525924683
  1
HAVA HIZI
 50
359.1663171278209
100
AcDbText
  0
TEXT
  5
23B
330
1F
100
AcDbEntity
  8
0
370
     0
100
AcDbText
 10
406833.7551116763
 20
4590206.819232639
 30
316.0
 40
0.4877296686172483
  1
2
 50
359.1663171278209
100
AcDbText
  0
TEXT
  5
23E
330
1F
100
AcDbEntity
  8
0
370
     0
100
AcDbText
 10
406826.4185314967
 20
4590203.996233403
 30
316.0
 40
1.045135021209717
  1
NEM
 50
359.1663171278209
100
AcDbText
  0
LWPOLYLINE
  5
240
330
1F
100
AcDbEntity
  8
0
370
     0
100
AcDbPolyline
 90
        5
 70
     1
 43
0.0
 38
316.0
 10
406727.8392256953
 20
4590181.356377146
 10
406738.4980568
 20
4590181.20127476
 10
406738.6607251557
 20
4590192.380048846
 10
406728.0018940511
 20
4590192.535151232
 10
406727.8392256953
 20
4590181.356377146
  0
TEXT
  5
243
330
1F
100
AcDbEntity
  8
0
370
     0
100
AcDbText
 10
406729.4718551251
 20
4590188.71911106
 30
316.0
 40
1.045135021209717
  1
CH
 50
359.1663171278209
100
AcDbText
  0
TEXT
  5
244
330
1F
100
AcDbEntity
  8
0
370
     0
100
AcDbText
 10
406734.4769751059
 20
4590188.573709917
 30
316.0
 40
1.045135021209717
  1
CO
 50
359.1663171278209
100
AcDbText
  0
TEXT
  5
245
330
1F
100
AcDbEntity
  8
0
370
     0
100
AcDbText
 10
406729.5620803407
 20
4590185.544087318
 30
316.0
 40
1.045135021209717
  1
H S
 50
359.1663171278209
100
AcDbText
  0
TEXT
  5
246
330
1F
100
AcDbEntity
  8
0
370
     0
100
AcDbText
 10
406735.0025199513
 20
4590185.39235158
 30
316.0
 40
1.045135021209717
  1
O
 50
359.1663171278209
100
AcDbText
  0
TEXT
  5
247
330
1F
100
AcDbEntity
  8
0
370
     0
100
AcDbText
 10
406730.6275362182
 20
4590185.218154432
 30
316.0
 40
0.4877296686172483
  1
2
 50
359.1663171278209
100
AcDbText
  0
TEXT
  5
248
330
1F
100
AcDbEntity
  8
0
370
     0
100
AcDbText
 10
406731.4656859697
 20
4590188.243262981
 30
316.0
 40
0.4877296686172483
  1
4
 50
359.1663171278209
100
AcDbText
  0
TEXT
  5
24A
330
1F
100
AcDbEntity
  8
0
370
     0
100
AcDbText
 10
406733.8023732355
 20
4590191.081604781
 30
316.0
 40
0.5574053525924683
  1
SICAKLIK
 50
359.1663171278209
100
AcDbText
  0
TEXT
  5
24B
330
1F
100
AcDbEntity
  8
0
370
     0
100
AcDbText
 10
406728.6714960628
 20
4590191.214594671
 30
316.0
 40
0.5574053525924683
  1
HAVA HIZI
 50
359.1663171278209
100
AcDbText
  0
TEXT
  5
24C
330
1F
100
AcDbEntity
  8
0
370
     0
100
AcDbText
 10
406736.2534193376
 20
4590185.145334385
 30
316.0
 40
0.4877296686172483
  1
2
 50
359.1663171278209
100
AcDbText
  0
TEXT
  5
24F
330
1F
100
AcDbEntity
  8
0
370
     0
100
AcDbText
 10
406728.916839158
 20
4590182.322335149
 30
316.0
 40
1.045135021209717
  1
NEM
 50
359.1663171278209
100
AcDbText
  0
LWPOLYLINE
  5
251
330
1F
100
AcDbEntity
  8
0
370
     0
100
AcDbPolyline
 90
        5
 70
     1
 43
0.0
 38
316.0
 10
406748.7612807467
 20
4590227.993096568
 10
406759.4201118514
 20
4590227.837994182
 10
406759.5827802072
 20
4590239.016768267
 10
406748.9239491025
 20
4590239.171870654
 10
406748.7612807467
 20
4590227.993096568
  0
TEXT
  5
254
330
1F
100
AcDbEntity
  8
0
370
     0
100
AcDbText
 10
406750.3939101765
 20
4590235.355830481
 30
316.0
 40
1.045135021209717
  1
CH
 50
359.1663171278209
100
AcDbText
  0
TEXT
  5
255
330
1F
100
AcDbEntity
  8
0
370
     0
100
AcDbText
 10
406755.3990301574
 20
4590235.210429339
 30
316.0
 40
1.045135021209717
  1
CO
 50
359.1663171278209
100
AcDbText
  0
TEXT
  5
256
330
1F
100
AcDbEntity
  8
0
370
     0
100
AcDbText
 10
406750.4841353921
 20
4590232.180806739
 30
316.0
 40
1.045135021209717
  1
H S
 50
359.1663171278209
100
AcDbText
  0
TEXT
  5
257
330
1F
100
AcDbEntity
  8
0
370
     0
100
AcDbText
 10
406755.9245750027
 20
4590232.029071001
 30
316.0
 40
1.045135021209717
  1
O
 50
359.1663171278209
100
AcDbText
  0
TEXT
  5
258
330
1F
100
AcDbEntity
  8
0
370
     0
100
AcDbText
 10
406751.5495912696
 20
4590231.854873854
 30
316.0
 40
0.4877296686172483
  1
2
 50
359.1663171278209
100
AcDbText
  0
TEXT
  5
259
330
1F
100
AcDbEntity
  8
0
370
     0
100
AcDbText
 10
406752.3877410211
 20
4590234.879982403
 30
316.0
 40
0.4877296686172483
  1
4
 50
359.1663171278209
100
AcDbText
  0
TEXT
  5
25B
330
1F
100
AcDbEntity
  8
0
370
     0
100
AcDbText
 10
406754.7244282869
 20
4590237.718324202
 30
316.0
 40
0.5574053525924683
  1
SICAKLIK
 50
359.1663171278209
100
AcDbText
  0
TEXT
  5
25C
330
1F
100
AcDbEntity
  8
0
370
     0
100
AcDbText
 10
406749.5935511143
 20
4590237.851314092
 30
316.0
 40
0.5574053525924683
  1
HAVA HIZI
 50
359.1663171278209
100
AcDbText
  0
TEXT
  5
25D
330
1F
100
AcDbEntity
  8
0
370
     0
100
AcDbText
 10
406757.175474389
 20
4590231.782053807
 30
316.0
 40
0.4877296686172483
  1
2
 50
359.1663171278209
100
AcDbText
  0
TEXT
  5
260
330
1F
100
AcDbEntity
  8
0
370
     0
100
AcDbText
 10
406749.8388942095
 20
4590228.959054571
 30
316.0
 40
1.045135021209717
  1
NEM
 50
359.1663171278209
100
AcDbText
  0
LWPOLYLINE
  5
262
330
1F
100
AcDbEntity
  8
0
370
     0
100
AcDbPolyline
 90
        5
 70
     1
 43
0.0
 38
316.0
 10
406691.0197170216
 20
4590218.968570848
 10
406701.6785481263
 20
4590218.813468462
 10
406701.841216482
 20
4590229.992242548
 10
406691.1823853774
 20
4590230.147344934
 10
406691.0197170216
 20
4590218.968570848
  0
TEXT
  5
265
330
1F
100
AcDbEntity
  8
0
370
     0
100
AcDbText
 10
406692.6523464514
 20
4590226.331304762
 30
316.0
 40
1.045135021209717
  1
CH
 50
359.1663171278209
100
AcDbText
  0
TEXT
  5
266
330
1F
100
AcDbEntity
  8
0
370
     0
100
AcDbText
 10
406697.6574664323
 20
4590226.185903619
 30
316.0
 40
1.045135021209717
  1
CO
 50
359.1663171278209
100
AcDbText
  0
TEXT
  5
267
330
1F
100
AcDbEntity
  8
0
370
     0
100
AcDbText
 10
406692.742571667
 20
4590223.15628102
 30
316.0
 40
1.045135021209717
  1
H S
 50
359.1663171278209
100
AcDbText
  0
TEXT
  5
268
330
1F
100
AcDbEntity
  8
0
370
     0
100
AcDbText
 10
406698.1830112776
 20
4590223.004545282
 30
316.0
 40
1.045135021209717
  1
O
 50
359.1663171278209
100
AcDbText
  0
TEXT
  5
269
330
1F
100
AcDbEntity
  8
0
370
     0
100
AcDbText
 10
406693.8080275445
 20
4590222.830348134
 30
316.0
 40
0.4877296686172483
  1
2
 50
359.1663171278209
100
AcDbText
  0
TEXT
  5
26A
330
1F
100
AcDbEntity
  8
0
370
     0
100
AcDbText
 10
406694.646177296
 20
4590225.855456683
 30
316.0
 40
0.4877296686172483
  1
4
 50
359.1663171278209
100
AcDbText
  0
TEXT
  5
26C
330
1F
100
AcDbEntity
  8
0
370
     0
100
AcDbText
 10
406696.9828645618
 20
4590228.693798482
 30
316.0
 40
0.5574053525924683
  1
SICAKLIK
 50
359.1663171278209
100
AcDbText
  0
TEXT
  5
26D
330
1F
100
AcDbEntity
  8
0
370
     0
100
AcDbText
 10
406691.8519873891
 20
4590228.826788372
 30
316.0
 40
0.5574053525924683
  1
HAVA HIZI
 50
359.1663171278209
100
AcDbText
  0
TEXT
  5
26E
330
1F
100
AcDbEntity
  8
0
370
     0
100
AcDbText
 10
406699.4339106639
 20
4590222.757528087
 30
316.0
 40
0.4877296686172483
  1
2
 50
359.1663171278209
100
AcDbText
  0
TEXT
  5
271
330
1F
100
AcDbEntity
  8
0
370
     0
100
AcDbText
 10
406692.0973304844
 20
4590219.934528851
 30
316.0
 40
1.045135021209717
  1
NEM
 50
359.1663171278209
100
AcDbText
  0
LINE
  5
275
330
1F
100
AcDbEntity
  8
DAMAR_PAPAZ
370
     0
100
AcDbLine
 10
406733.7358343242
 20
4590177.294971843
 30
316.0
 11
406733.4233503413
 21
4590177.207347207
 31
316.0
  0
LINE
  5
276
330
1F
100
AcDbEntity
  8
0
370
     0
100
AcDbLine
 10
406728.4324003339
 20
4590164.830952113
 30
316.0
 11
406745.4324003339
 21
4590164.830952113
 31
316.0
  0
LINE
  5
277
330
1F
100
AcDbEntity
  8
0
370
     0
100
AcDbLine
 10
406728.4324003339
 20
4590172.830952113
 30
316.0
 11
406745.4324003339
 21
4590172.830952113
 31
316.0
  0
LINE
  5
278
330
1F
100
AcDbEntity
  8
0
370
     0
100
AcDbLine
 10
406728.4324003339
 20
4590164.830952113
 30
316.0
 11
406728.4324003339
 21
4590172.830952113
 31
316.0
  0
LINE
  5
279
330
1F
100
AcDbEntity
  8
0
370
     0
100
AcDbLine
 10
406745.4324003339
 20
4590172.830952113
 30
316.0
 11
406745.4324003339
 21
4590164.830952113
 31
316.0
  0
ARC
  5
27A
330
1F
100
AcDbEntity
  8
0
370
    13
100
AcDbCircle
 10
406737.3986402371
 20
4590168.780584423
 30
316.0
 40
2.0
100
AcDbArc
 50
45.293591772215
 51
310.4765218043581
  0
CIRCLE
  5
27B
330
1F
100
AcDbEntity
  8
0
370
    13
100
AcDbCircle
 10
406737.3350718987
 20
4590168.825805249
 30
316.0
 40
2.8
  0
POLYLINE
  5
27C
330
1F
100
AcDbEntity
  8
0
370
    13
100
AcDb3dPolyline
 66
     1
 10
0.0
 20
0.0
 30
0.0
 70
     8
  0
VERTEX
  5
27D
330
27C
100
AcDbEntity
  8
0
370
    13
100
AcDbVertex
100
AcDb3dPolylineVertex
 10
406738.8055886319
 20
4590170.202026021
 30
316.0
 70
    32
  0
VERTEX
  5
27E
330
27C
100
AcDbEntity
  8
0
370
    13
100
AcDbVertex
100
AcDb3dPolylineVertex
 10
406737.5233413966
 20
4590170.313088753
 30
316.0
 70
    32
  0
VERTEX
  5
27F
330
27C
100
AcDbEntity
  8
0
370
    13
100
AcDbVertex
100
AcDb3dPolylineVertex
 10
406736.8372309626
 20
4590169.96303241
 30
316.0
 70
    32
  0
VERTEX
  5
280
330
27C
100
AcDbEntity
  8
0
370
    13
100
AcDbVertex
100
AcDb3dPolylineVertex
 10
406736.5151791263
 20
4590169.500958036
 30
316.0
 70
    32
  0
VERTEX
  5
281
330
27C
100
AcDbEntity
  8
0
370
    13
100
AcDbVertex
100
AcDb3dPolylineVertex
 10
406736.3471520813
 20
4590168.800845348
 30
316.0
 70
    32
  0
VERTEX
  5
282
330
27C
100
AcDbEntity
  8
0
370
    13
100
AcDbVertex
100
AcDb3dPolylineVertex
 10
406736.3891588426
 20
4590168.268759705
 30
316.0
 70
    32
  0
VERTEX
  5
283
330
27C
100
AcDbEntity
  8
0
370
    13
100
AcDbVertex
100
AcDb3dPolylineVertex
 10
406736.7252129326
 20
4590167.736674063
 30
316.0
 70
    32
  0
VERTEX
  5
284
330
27C
100
AcDbEntity
  8
0
370
    13
100
AcDbVertex
100
AcDb3dPolylineVertex
 10
406737.2432963215
 20
4590167.358613212
 30
316.0
 70
    32
  0
VERTEX
  5
285
330
27C
100
AcDbEntity
  8
0
370
    13
100
AcDbVertex
100
AcDb3dPolylineVertex
 10
406737.9294067554
 20
4590167.204588421
 30
316.0
 70
    32
  0
SEQEND
  5
286
330
27C
100
AcDbEntity
  8
0
370
    13
  0
LINE
  5
287
330
1F
100
AcDbEntity
  8
0
370
    13
100
AcDbLine
 10
406737.9294067554
 20
4590167.204588421
 30
316.0
 11
406738.6969130388
 21
4590167.259240368
 31
316.0
  0
POLYLINE
  5
288
102
{ACAD_REACTORS
330
29C
102
}
330
1F
100
AcDbEntity
  8
LEJANT_SiHHIYE
370
     0
100
AcDb3dPolyline
 66
     1
 10
0.0
 20
0.0
 30
0.0
 70
     9
  0
VERTEX
  5
289
330
288
100
AcDbEntity
  8
LEJANT_SiHHIYE
370
     0
100
AcDbVertex
100
AcDb3dPolylineVertex
 10
406740.1350718987
 20
4590168.825805249
 30
316.0
 70
    32
  0
VERTEX
  5
28A
330
288
100
AcDbEntity
  8
LEJANT_SiHHIYE
370
     0
100
AcDbVertex
100
AcDb3dPolylineVertex
 10
406739.945994141
 20
4590169.837281913
 30
316.0
 70
    32
  0
VERTEX
  5
28B
330
288
100
AcDbEntity
  8
LEJANT_SiHHIYE
370
     0
100
AcDbVertex
100
AcDb3dPolylineVertex
 10
406739.4042968669
 20
4590170.712153051
 30
316.0
 70
    32
  0
VERTEX
  5
28C
330
288
100
AcDbEntity
  8
LEJANT_SiHHIYE
370
     0
100
AcDbVertex
100
AcDb3dPolylineVertex
 10
406738.5831392949
 20
4590171.332262465
 30
316.0
 70
    32
  0
VERTEX
  5
28D
330
288
100
AcDbEntity
  8
LEJANT_SiHHIYE
370
     0
100
AcDbVertex
100
AcDb3dPolylineVertex
 10
406737.5934233052
 20
4590171.613860942
 30
316.0
 70
    32
  0
VERTEX
  5
28E
330
288
100
AcDbEntity
  8
LEJANT_SiHHIYE
370
     0
100
AcDbVertex
100
AcDb3dPolylineVertex
 10
406736.5688155265
 20
4590171.518917049
 30
316.0
 70
    32
  0
VERTEX
  5
28F
330
288
100
AcDbEntity
  8
LEJANT_SiHHIYE
370
     0
100
AcDbVertex
100
AcDb3dPolylineVertex
 10
406735.6476949168
 20
4590171.060253485
 30
316.0
 70
    32
  0
VERTEX
  5
290
330
288
100
AcDbEntity
  8
LEJANT_SiHHIYE
370
     0
100
AcDbVertex
100
AcDb3dPolylineVertex
 10
406734.9544639186
 20
4590170.299815305
 30
316.0
 70
    32
  0
VERTEX
  5
291
330
288
100
AcDbEntity
  8
LEJANT_SiHHIYE
370
     0
100
AcDbVertex
100
AcDb3dPolylineVertex
 10
406734.5827472196
 20
4590169.340303899
 30
316.0
 70
    32
  0
VERTEX
  5
292
330
288
100
AcDbEntity
  8
LEJANT_SiHHIYE
370
     0
100
AcDbVertex
100
AcDb3dPolylineVertex
 10
406734.5827472196
 20
4590168.311306599
 30
316.0
 70
    32
  0
VERTEX
  5
293
330
288
100
AcDbEntity
  8
LEJANT_SiHHIYE
370
     0
100
AcDbVertex
100
AcDb3dPolylineVertex
 10
406734.9544639186
 20
4590167.351795193
 30
316.0
 70
    32
  0
VERTEX
  5
294
330
288
100
AcDbEntity
  8
LEJANT_SiHHIYE
370
     0
100
AcDbVertex
100
AcDb3dPolylineVertex
 10
406735.6476949168
 20
4590166.591357012
 30
316.0
 70
    32
  0
VERTEX
  5
295
330
288
100
AcDbEntity
  8
LEJANT_SiHHIYE
370
     0
100
AcDbVertex
100
AcDb3dPolylineVertex
 10
406736.5688155265
 20
4590166.132693448
 30
316.0
 70
    32
  0
VERTEX
  5
296
330
288
100
AcDbEntity
  8
LEJANT_SiHHIYE
370
     0
100
AcDbVertex
100
AcDb3dPolylineVertex
 10
406737.5934233052
 20
4590166.037749555
 30
316.0
 70
    32
  0
VERTEX
  5
297
330
288
100
AcDbEntity
  8
LEJANT_SiHHIYE
370
     0
100
AcDbVertex
100
AcDb3dPolylineVertex
 10
406738.5831392949
 20
4590166.319348033
 30
316.0
 70
    32
  0
VERTEX
  5
298
330
288
100
AcDbEntity
  8
LEJANT_SiHHIYE
370
     0
100
AcDbVertex
100
AcDb3dPolylineVertex
 10
406739.4042968669
 20
4590166.939457446
 30
316.0
 70
    32
  0
VERTEX
  5
299
330
288
100
AcDbEntity
  8
LEJANT_SiHHIYE
370
     0
100
AcDbVertex
100
AcDb3dPolylineVertex
 10
406739.945994141
 20
4590167.814328583
 30
316.0
 70
    32
  0
VERTEX
  5
29A
330
288
100
AcDbEntity
  8
LEJANT_SiHHIYE
370
     0
100
AcDbVertex
100
AcDb3dPolylineVertex
 10
406740.1350718987
 20
4590168.825805249
 30
316.0
 70
    32
  0
SEQEND
  5
29B
330
288
100
AcDbEntity
  8
LEJANT_SiHHIYE
370
     0
  0
HATCH
  5
29C
330
1F
100
AcDbEntity
  8
LEJANT_SiHHIYE
370
     0
100
AcDbHatch
 10
0.0
 20
0.0
 30
316.0
210
0.0
220
0.0
230
1.0
  2
SOLID
 70
     1
 71
     1
 91
        1
 92
        1
 93
       17
 72
     1
 10
406740.1350718987
 20
4590168.825805249
 11
406739.945994141
 21
4590169.837281913
 72
     1
 10
406739.945994141
 20
4590169.837281913
 11
406739.4042968669
 21
4590170.712153051
 72
     1
 10
406739.4042968669
 20
4590170.712153051
 11
406738.5831392949
 21
4590171.332262465
 72
     1
 10
406738.5831392949
 20
4590171.332262465
 11
406737.5934233052
 21
4590171.613860942
 72
     1
 10
406737.5934233052
 20
4590171.613860942
 11
406736.5688155265
 21
4590171.518917049
 72
     1
 10
406736.5688155265
 20
4590171.518917049
 11
406735.6476949168
 21
4590171.060253485
 72
     1
 10
406735.6476949168
 20
4590171.060253485
 11
406734.9544639186
 21
4590170.299815305
 72
     1
 10
406734.9544639186
 20
4590170.299815305
 11
406734.5827472196
 21
4590169.340303899
 72
     1
 10
406734.5827472196
 20
4590169.340303899
 11
406734.5827472196
 21
4590168.311306599
 72
     1
 10
406734.5827472196
 20
4590168.311306599
 11
406734.9544639186
 21
4590167.351795193
 72
     1
 10
406734.9544639186
 20
4590167.351795193
 11
406735.6476949168
 21
4590166.591357012
 72
     1
 10
406735.6476949168
 20
4590166.591357012
 11
406736.5688155265
 21
4590166.132693448
 72
     1
 10
406736.5688155265
 20
4590166.132693448
 11
406737.5934233052
 21
4590166.037749555
 72
     1
 10
406737.5934233052
 20
4590166.037749555
 11
406738.5831392949
 21
4590166.319348033
 72
     1
 10
406738.5831392949
 20
4590166.319348033
 11
406739.4042968669
 21
4590166.939457446
 72
     1
 10
406739.4042968669
 20
4590166.939457446
 11
406739.945994141
 21
4590167.814328583
 72
     1
 10
406739.945994141
 20
4590167.814328583
 11
406740.1350718987
 21
4590168.825805249
 97
        1
330
288
 75
     0
 76
     1
 98
        1
 10
348773.9279982924
 20
4539870.687666837
  0
POLYLINE
  5
29D
102
{ACAD_REACTORS
330
2B3
102
}
330
1F
100
AcDbEntity
  8
LEJANT_TEMIZHAVA
370
     0
100
AcDb3dPolyline
 66
     1
 10
0.0
 20
0.0
 30
0.0
 70
     9
  0
VERTEX
  5
29E
330
29D
100
AcDbEntity
  8
LEJANT_TEMIZHAVA
370
     0
100
AcDbVertex
100
AcDb3dPolylineVertex
 10
406738.6969130388
 20
4590167.259240368
 30
316.0
 70
    32
  0
VERTEX
  5
29F
330
29D
100
AcDbEntity
  8
LEJANT_TEMIZHAVA
370
     0
100
AcDbVertex
100
AcDb3dPolylineVertex
 10
406737.8810691215
 20
4590166.839640742
 30
316.0
 70
    32
  0
VERTEX
  5
2A0
330
29D
100
AcDbEntity
  8
LEJANT_TEMIZHAVA
370
     0
100
AcDbVertex
100
AcDb3dPolylineVertex
 10
406736.96371431
 20
4590166.828447277
 30
316.0
 70
    32
  0
VERTEX
  5
2A1
330
29D
100
AcDbEntity
  8
LEJANT_TEMIZHAVA
370
     0
100
AcDbVertex
100
AcDb3dPolylineVertex
 10
406736.1378749968
 20
4590167.228015259
 30
316.0
 70
    32
  0
VERTEX
  5
2A2
330
29D
100
AcDbEntity
  8
LEJANT_TEMIZHAVA
370
     0
100
AcDbVertex
100
AcDb3dPolylineVertex
 10
406735.5773212229
 20
4590167.954269079
 30
316.0
 70
    32
  0
VERTEX
  5
2A3
330
29D
100
AcDbEntity
  8
LEJANT_TEMIZHAVA
370
     0
100
AcDbVertex
100
AcDb3dPolylineVertex
 10
406735.4000026315
 20
4590168.854393104
 30
316.0
 70
    32
  0
VERTEX
  5
2A4
330
29D
100
AcDbEntity
  8
LEJANT_TEMIZHAVA
370
     0
100
AcDbVertex
100
AcDb3dPolylineVertex
 10
406735.643229942
 20
4590169.738986581
 30
316.0
 70
    32
  0
VERTEX
  5
2A5
330
29D
100
AcDbEntity
  8
LEJANT_TEMIZHAVA
370
     0
100
AcDbVertex
100
AcDb3dPolylineVertex
 10
406736.2558241672
 20
4590170.421916635
 30
316.0
 70
    32
  0
VERTEX
  5
2A6
330
29D
100
AcDbEntity
  8
LEJANT_TEMIZHAVA
370
     0
100
AcDbVertex
100
AcDb3dPolylineVertex
 10
406737.1088855053
 20
4590170.759483662
 30
316.0
 70
    32
  0
VERTEX
  5
2A7
330
29D
100
AcDbEntity
  8
LEJANT_TEMIZHAVA
370
     0
100
AcDbVertex
100
AcDb3dPolylineVertex
 10
406738.0229159579
 20
4590170.68065806
 30
316.0
 70
    32
  0
VERTEX
  5
2A8
330
29D
100
AcDbEntity
  8
LEJANT_TEMIZHAVA
370
     0
100
AcDbVertex
100
AcDb3dPolylineVertex
 10
406738.8055886319
 20
4590170.202026021
 30
316.0
 70
    32
  0
VERTEX
  5
2A9
330
29D
100
AcDbEntity
  8
LEJANT_TEMIZHAVA
370
     0
100
AcDbVertex
100
AcDb3dPolylineVertex
 10
406737.5233413966
 20
4590170.313088753
 30
316.0
 70
    32
  0
VERTEX
  5
2AA
330
29D
100
AcDbEntity
  8
LEJANT_TEMIZHAVA
370
     0
100
AcDbVertex
100
AcDb3dPolylineVertex
 10
406736.8372309626
 20
4590169.96303241
 30
316.0
 70
    32
  0
VERTEX
  5
2AB
330
29D
100
AcDbEntity
  8
LEJANT_TEMIZHAVA
370
     0
100
AcDbVertex
100
AcDb3dPolylineVertex
 10
406736.5151791263
 20
4590169.500958036
 30
316.0
 70
    32
  0
VERTEX
  5
2AC
330
29D
100
AcDbEntity
  8
LEJANT_TEMIZHAVA
370
     0
100
AcDbVertex
100
AcDb3dPolylineVertex
 10
406736.3471520813
 20
4590168.800845348
 30
316.0
 70
    32
  0
VERTEX
  5
2AD
330
29D
100
AcDbEntity
  8
LEJANT_TEMIZHAVA
370
     0
100
AcDbVertex
100
AcDb3dPolylineVertex
 10
406736.3891588426
 20
4590168.268759705
 30
316.0
 70
    32
  0
VERTEX
  5
2AE
330
29D
100
AcDbEntity
  8
LEJANT_TEMIZHAVA
370
     0
100
AcDbVertex
100
AcDb3dPolylineVertex
 10
406736.7252129326
 20
4590167.736674063
 30
316.0
 70
    32
  0
VERTEX
  5
2AF
330
29D
100
AcDbEntity
  8
LEJANT_TEMIZHAVA
370
     0
100
AcDbVertex
100
AcDb3dPolylineVertex
 10
406737.2432963215
 20
4590167.358613212
 30
316.0
 70
    32
  0
VERTEX
  5
2B0
330
29D
100
AcDbEntity
  8
LEJANT_TEMIZHAVA
370
     0
100
AcDbVertex
100
AcDb3dPolylineVertex
 10
406737.9294067554
 20
4590167.204588421
 30
316.0
 70
    32
  0
VERTEX
  5
2B1
330
29D
100
AcDbEntity
  8
LEJANT_TEMIZHAVA
370
     0
100
AcDbVertex
100
AcDb3dPolylineVertex
 10
406738.6969130388
 20
4590167.259240368
 30
316.0
 70
    32
  0
SEQEND
  5
2B2
330
29D
100
AcDbEntity
  8
LEJANT_TEMIZHAVA
370
     0
  0
HATCH
  5
2B3
330
1F
100
AcDbEntity
  8
LEJANT_TEMIZHAVA
370
     0
100
AcDbHatch
 10
0.0
 20
0.0
 30
316.0
210
0.0
220
0.0
230
1.0
  2
SOLID
 70
     1
 71
     1
 91
        1
 92
        1
 93
       19
 72
     1
 10
406738.6969130388
 20
4590167.259240368
 11
406737.8810691215
 21
4590166.839640742
 72
     1
 10
406737.8810691215
 20
4590166.839640742
 11
406736.96371431
 21
4590166.828447277
 72
     1
 10
406736.96371431
 20
4590166.828447277
 11
406736.1378749968
 21
4590167.228015259
 72
     1
 10
406736.1378749968
 20
4590167.228015259
 11
406735.5773212229
 21
4590167.954269079
 72
     1
 10
406735.5773212229
 20
4590167.954269079
 11
406735.4000026315
 21
4590168.854393104
 72
     1
 10
406735.4000026315
 20
4590168.854393104
 11
406735.643229942
 21
4590169.738986581
 72
     1
 10
406735.643229942
 20
4590169.738986581
 11
406736.2558241672
 21
4590170.421916635
 72
     1
 10
406736.2558241672
 20
4590170.421916635
 11
406737.1088855053
 21
4590170.759483662
 72
     1
 10
406737.1088855053
 20
4590170.759483662
 11
406738.0229159579
 21
4590170.68065806
 72
     1
 10
406738.0229159579
 20
4590170.68065806
 11
406738.8055886319
 21
4590170.202026021
 72
     1
 10
406738.8055886319
 20
4590170.202026021
 11
406737.5233413966
 21
4590170.313088753
 72
     1
 10
406737.5233413966
 20
4590170.313088753
 11
406736.8372309626
 21
4590169.96303241
 72
     1
 10
406736.8372309626
 20
4590169.96303241
 11
406736.5151791263
 21
4590169.500958036
 72
     1
 10
406736.5151791263
 20
4590169.500958036
 11
406736.3471520813
 21
4590168.800845348
 72
     1
 10
406736.3471520813
 20
4590168.800845348
 11
406736.3891588426
 21
4590168.268759705
 72
     1
 10
406736.3891588426
 20
4590168.268759705
 11
406736.7252129326
 21
4590167.736674063
 72
     1
 10
406736.7252129326
 20
4590167.736674063
 11
406737.2432963215
 21
4590167.358613212
 72
     1
 10
406737.2432963215
 20
4590167.358613212
 11
406737.9294067554
 21
4590167.204588421
 72
     1
 10
406737.9294067554
 20
4590167.204588421
 11
406738.6969130388
 21
4590167.259240368
 97
        1
330
29D
 75
     0
 76
     1
 98
        1
 10
348773.9279982924
 20
4539870.687666837
  0
LINE
  5
325
330
1F
100
AcDbEntity
  8
0
100
AcDbLine
 10
406841.6076787393
 20
4590224.52836661
 30
316.0
 11
406841.6076787393
 21
4590217.264225082
 31
316.0
  0
LINE
  5
326
330
1F
100
AcDbEntity
  8
0
100
AcDbLine
 10
406841.6076787393
 20
4590217.264225082
 30
316.0
 11
406850.8784035595
 21
4590217.264225082
 31
316.0
  0
LINE
  5
327
330
1F
100
AcDbEntity
  8
0
100
AcDbLine
 10
406850.8784035595
 20
4590217.264225082
 30
316.0
 11
406850.8784035595
 21
4590224.52836661
 31
316.0
  0
LINE
  5
328
330
1F
100
AcDbEntity
  8
0
100
AcDbLine
 10
406850.8784035595
 20
4590224.52836661
 30
316.0
 11
406841.6076787393
 21
4590224.52836661
 31
316.0
  0
MTEXT
  5
329
330
1F
100
AcDbEntity
  8
0
100
AcDbMText
 10
406850.8784035595
 20
4590217.264225082
 30
316.0
 40
2.5
 41
21.92339765102098
 46
2.55005005005005
 71
     1
 72
     5
  1
{Sarj Istasyonu}
 73
     1
 44
1.0
1001
ACAD
1000
ACAD_MTEXT_DEFINED_HEIGHT_BEGIN
1070
    46
1040
2.55005005005005
1000
ACAD_MTEXT_DEFINED_HEIGHT_END
  0
POINT
  5
351
330
1F
100
AcDbEntity
  8
INIT_COORD
100
AcDbPoint
 10
406849.5044
 20
4590207.5468
 30
316.0
  0
ENDSEC
  0
SECTION
  2
OBJECTS
  0
DICTIONARY
  5
C
330
0
100
AcDbDictionary
281
     1
  3
ACAD_COLOR
350
2FC
  3
ACAD_DETAILVIEWSTYLE
350
2ED
  3
ACAD_GROUP
350
D
  3
ACAD_LAYOUT
350
1A
  3
ACAD_MATERIAL
350
3B
  3
ACAD_MLEADERSTYLE
350
2DB
  3
ACAD_MLINESTYLE
350
17
  3
ACAD_PLOTSETTINGS
350
19
  3
ACAD_PLOTSTYLENAME
350
E
  3
ACAD_SCALELIST
350
66
  3
ACAD_SECTIONVIEWSTYLE
350
2EE
  3
ACAD_TABLESTYLE
350
2DA
  3
ACAD_VISUALSTYLE
350
2A
  3
ACDB_RECOMPOSE_DATA
350
3D7
  3
AcDbVariableDictionary
350
2B8
  3
APPDATA
350
2E8
  0
SUN
  5
2E9
330
29
100
AcDbSun
 90
        1
290
     0
 63
     7
421
 16777215
 40
1.0
291
     1
 91
  2455826
 92
 54000000
292
     0
 70
     2
 71
   256
280
     1
  0
DICTIONARY
  5
31C
330
2
100
AcDbDictionary
280
     1
281
     1
  3
ACAD_LAYERSTATES
360
31D
  3
ACLYDICTIONARY
360
3D4
  0
DICTIONARY
  5
2FC
102
{ACAD_REACTORS
330
C
102
}
330
C
100
AcDbDictionary
281
     1
  0
DICTIONARY
  5
2ED
102
{ACAD_REACTORS
330
C
102
}
330
C
100
AcDbDictionary
281
     1
  0
DICTIONARY
  5
D
102
{ACAD_REACTORS
330
C
102
}
330
C
100
AcDbDictionary
281
     1
  0
DICTIONARY
  5
1A
102
{ACAD_REACTORS
330
C
102
}
330
C
100
AcDbDictionary
281
     1
  3
Layout1
350
1E
  3
Layout2
350
26
  3
Model
350
22
  0
DICTIONARY
  5
3B
102
{ACAD_REACTORS
330
C
102
}
330
C
100
AcDbDictionary
281
     1
  3
ByBlock
350
3D
  3
ByLayer
350
3C
  3
Global
350
3E
  0
DICTIONARY
  5
2DB
102
{ACAD_REACTORS
330
C
102
}
330
C
100
AcDbDictionary
281
     1
  3
Standard
350
2E7
  0
DICTIONARY
  5
17
102
{ACAD_REACTORS
330
C
102
}
330
C
100
AcDbDictionary
281
     1
  3
Standard
350
18
  0
DICTIONARY
  5
19
102
{ACAD_REACTORS
330
C
102
}
330
C
100
AcDbDictionary
281
     1
  0
ACDBDICTIONARYWDFLT
  5
E
102
{ACAD_REACTORS
330
C
102
}
330
C
100
AcDbDictionary
281
     1
  3
Normal
350
F
100
AcDbDictionaryWithDefault
340
F
  0
DICTIONARY
  5
66
102
{ACAD_REACTORS
330
C
102
}
330
C
100
AcDbDictionary
281
     1
  3
A0
350
67
  3
A1
350
68
  3
A2
350
69
  3
A3
350
6A
  3
A4
350
6B
  3
A5
350
6C
  3
A6
350
6D
  3
A7
350
6E
  3
A8
350
6F
  3
A9
350
70
  3
B0
350
71
  3
B1
350
72
  3
B2
350
73
  3
B3
350
74
  3
B4
350
75
  3
B5
350
76
  3
B6
350
77
  3
B7
350
78
  3
B8
350
79
  3
B9
350
7A
  3
C0
350
7B
  3
C1
350
7C
  3
C2
350
7D
  3
C3
350
7E
  3
C4
350
7F
  3
C5
350
80
  3
C6
350
81
  3
C7
350
82
  3
C8
350
83
  3
C9
350
84
  3
D0
350
85
  3
D1
350
86
  3
D2
350
87
  0
DICTIONARY
  5
2EE
102
{ACAD_REACTORS
330
C
102
}
330
C
100
AcDbDictionary
281
     1
  0
DICTIONARY
  5
2DA
102
{ACAD_REACTORS
330
C
102
}
330
C
100
AcDbDictionary
281
     1
  3
Standard
350
2E6
  0
DICTIONARY
  5
2A
102
{ACAD_REACTORS
330
C
102
}
330
C
100
AcDbDictionary
281
     1
  3
2dWireframe
350
2F
  3
3D Hidden
350
31
  3
3dWireframe
350
30
  3
Basic
350
32
  3
Brighten
350
36
  3
ColorChange
350
3A
  3
Conceptual
350
34
  3
Dim
350
35
  3
EdgeColorOff
350
2E0
  3
Facepattern
350
39
  3
Flat
350
2B
  3
FlatWithEdges
350
2C
  3
Gouraud
350
2D
  3
GouraudWithEdges
350
2E
  3
Hidden
350
2DD
  3
JitterOff
350
2DE
  3
Linepattern
350
38
  3
OverhangOff
350
2DF
  3
Realistic
350
33
  3
Shaded
350
2E5
  3
Shaded with edges
350
2E4
  3
Shades of Gray
350
2E1
  3
Sketchy
350
2E2
  3
Thicken
350
37
  3
Wireframe
350
2DC
  3
X-Ray
350
2E3
  0
XRECORD
  5
3D7
102
{ACAD_REACTORS
330
C
102
}
330
C
100
AcDbXrecord
280
     1
 90
        1
330
2E6
  0
DICTIONARY
  5
2B8
102
{ACAD_REACTORS
330
C
102
}
330
C
100
AcDbDictionary
281
     1
  3
CANNOSCALE
350
2B9
  3
CMLEADERSTYLE
350
2EB
  3
CTABLESTYLE
350
2EA
  3
XCLIPFRAME
350
2EC
  0
DICTIONARY
  5
2E8
102
{ACAD_REACTORS
330
C
102
}
330
C
100
AcDbDictionary
281
     1
  0
DICTIONARY
  5
31D
102
{ACAD_REACTORS
330
31C
102
}
330
31C
100
AcDbDictionary
281
     1
  0
DICTIONARY
  5
3D4
102
{ACAD_REACTORS
330
31C
102
}
330
31C
100
AcDbDictionary
281
     1
1001
ACAD
1000
<All
  0
LAYOUT
  5
1E
102
{ACAD_REACTORS
330
1A
102
}
330
1A
100
AcDbPlotSettings
  1

  2
none_device
  4

  6

 40
0.0
 41
0.0
 42
0.0
 43
0.0
 44
0.0
 45
0.0
 46
0.0
 47
0.0
 48
0.0
 49
0.0
140
0.0
141
0.0
142
1.0
143
1.0
 70
   688
 72
     0
 73
     0
 74
     5
  7

 75
    16
 76
     0
 77
     2
 78
   300
147
1.0
148
0.0
149
0.0
100
AcDbLayout
  1
Layout1
 70
     1
 71
     1
 10
0.0
 20
0.0
 11
420.0
 21
297.0
 12
0.0
 22
0.0
 32
0.0
 14
1.000000000000000E+20
 24
1.000000000000000E+20
 34
1.000000000000000E+20
 15
-1.000000000000000E+20
 25
-1.000000000000000E+20
 35
-1.000000000000000E+20
146
0.0
 13
0.0
 23
0.0
 33
0.0
 16
1.0
 26
0.0
 36
0.0
 17
0.0
 27
1.0
 37
0.0
 76
     0
330
1B
  0
LAYOUT
  5
26
102
{ACAD_REACTORS
330
1A
102
}
330
1A
100
AcDbPlotSettings
  1

  2
none_device
  4

  6

 40
0.0
 41
0.0
 42
0.0
 43
0.0
 44
0.0
 45
0.0
 46
0.0
 47
0.0
 48
0.0
 49
0.0
140
0.0
141
0.0
142
1.0
143
1.0
 70
   688
 72
     0
 73
     0
 74
     5
  7

 75
    16
 76
     0
 77
     2
 78
   300
147
1.0
148
0.0
149
0.0
100
AcDbLayout
  1
Layout2
 70
     1
 71
     2
 10
0.0
 20
0.0
 11
0.0
 21
0.0
 12
0.0
 22
0.0
 32
0.0
 14
0.0
 24
0.0
 34
0.0
 15
0.0
 25
0.0
 35
0.0
146
0.0
 13
0.0
 23
0.0
 33
0.0
 16
1.0
 26
0.0
 36
0.0
 17
0.0
 27
1.0
 37
0.0
 76
     0
330
23
  0
LAYOUT
  5
22
102
{ACAD_REACTORS
330
1A
102
}
330
1A
100
AcDbPlotSettings
  1

  2
none_device
  4

  6

 40
0.0
 41
0.0
 42
0.0
 43
0.0
 44
0.0
 45
0.0
 46
0.0
 47
0.0
 48
0.0
 49
0.0
140
0.0
141
0.0
142
1.0
143
1.0
 70
  1712
 72
     0
 73
     0
 74
     0
  7

 75
     0
 76
     0
 77
     2
 78
   300
147
1.0
148
0.0
149
0.0
100
AcDbLayout
  1
Model
 70
     1
 71
     0
 10
0.0
 20
0.0
 11
420.0
 21
297.0
 12
0.0
 22
0.0
 32
0.0
 14
406441.4263940409
 24
4590093.072807207
 34
225.6116589384316
 15
406871.7913930753
 25
4590261.239453428
 35
406.8546784870451
146
0.0
 13
0.0
 23
0.0
 33
0.0
 16
1.0
 26
0.0
 36
0.0
 17
0.0
 27
1.0
 37
0.0
 76
     0
330
1F
331
29
  0
MATERIAL
  5
3D
102
{ACAD_REACTORS
330
3B
102
}
330
3B
100
AcDbMaterial
  1
ByBlock
 72
     1
 94
      127
  0
MATERIAL
  5
3C
102
{ACAD_REACTORS
330
3B
102
}
330
3B
100
AcDbMaterial
  1
ByLayer
 72
     1
 94
      127
  0
MATERIAL
  5
3E
102
{ACAD_REACTORS
330
3B
102
}
330
3B
100
AcDbMaterial
  1
Global
 72
     1
 94
      127
  0
MLEADERSTYLE
  5
2E7
102
{ACAD_REACTORS
330
2DB
102
}
330
2DB
100
AcDbMLeaderStyle
179
     2
170
     2
171
     1
172
     0
 90
        2
 40
0.0
 41
0.0
173
     1
 91
-1056964608
340
14
 92
       -2
290
     1
 42
2.0
291
     1
 43
8.0
  3
Standard
341
0
 44
4.0
300

342
11
174
     1
178
     1
175
     1
176
     0
 93
-1056964608
 45
4.0
292
     0
297
     0
 46
4.0
343
0
 94
-1056964608
 47
1.0
 49
1.0
140
1.0
293
     1
141
0.0
294
     1
177
     0
142
1.0
295
     0
296
     0
143
3.75
271
     0
272
     9
273
     9
  0
MLINESTYLE
  5
18
102
{ACAD_REACTORS
330
17
102
}
330
17
100
AcDbMlineStyle
  2
Standard
 70
     0
  3

 62
   256
 51
90.0
 52
90.0
 71
     2
 49
0.5
 62
   256
  6
BYLAYER
 49
-0.5
 62
   256
  6
BYLAYER
  0
ACDBPLACEHOLDER
  5
F
102
{ACAD_REACTORS
330
E
102
}
330
E
  0
SCALE
  5
67
102
{ACAD_REACTORS
330
66
102
}
330
66
100
AcDbScale
 70
     0
300
1:1
140
1.0
141
1.0
290
     1
  0
SCALE
  5
68
102
{ACAD_REACTORS
330
66
102
}
330
66
100
AcDbScale
 70
     0
300
1:2
140
1.0
141
2.0
290
     0
  0
SCALE
  5
69
102
{ACAD_REACTORS
330
66
102
}
330
66
100
AcDbScale
 70
     0
300
1:4
140
1.0
141
4.0
290
     0
  0
SCALE
  5
6A
102
{ACAD_REACTORS
330
66
102
}
330
66
100
AcDbScale
 70
     0
300
1:5
140
1.0
141
5.0
290
     0
  0
SCALE
  5
6B
102
{ACAD_REACTORS
330
66
102
}
330
66
100
AcDbScale
 70
     0
300
1:8
140
1.0
141
8.0
290
     0
  0
SCALE
  5
6C
102
{ACAD_REACTORS
330
66
102
}
330
66
100
AcDbScale
 70
     0
300
1:10
140
1.0
141
10.0
290
     0
  0
SCALE
  5
6D
102
{ACAD_REACTORS
330
66
102
}
330
66
100
AcDbScale
 70
     0
300
1:16
140
1.0
141
16.0
290
     0
  0
SCALE
  5
6E
102
{ACAD_REACTORS
330
66
102
}
330
66
100
AcDbScale
 70
     0
300
1:20
140
1.0
141
20.0
290
     0
  0
SCALE
  5
6F
102
{ACAD_REACTORS
330
66
102
}
330
66
100
AcDbScale
 70
     0
300
1:30
140
1.0
141
30.0
290
     0
  0
SCALE
  5
70
102
{ACAD_REACTORS
330
66
102
}
330
66
100
AcDbScale
 70
     0
300
1:40
140
1.0
141
40.0
290
     0
  0
SCALE
  5
71
102
{ACAD_REACTORS
330
66
102
}
330
66
100
AcDbScale
 70
     0
300
1:50
140
1.0
141
50.0
290
     0
  0
SCALE
  5
72
102
{ACAD_REACTORS
330
66
102
}
330
66
100
AcDbScale
 70
     0
300
1:100
140
1.0
141
100.0
290
     0
  0
SCALE
  5
73
102
{ACAD_REACTORS
330
66
102
}
330
66
100
AcDbScale
 70
     0
300
2:1
140
2.0
141
1.0
290
     0
  0
SCALE
  5
74
102
{ACAD_REACTORS
330
66
102
}
330
66
100
AcDbScale
 70
     0
300
4:1
140
4.0
141
1.0
290
     0
  0
SCALE
  5
75
102
{ACAD_REACTORS
330
66
102
}
330
66
100
AcDbScale
 70
     0
300
8:1
140
8.0
141
1.0
290
     0
  0
SCALE
  5
76
102
{ACAD_REACTORS
330
66
102
}
330
66
100
AcDbScale
 70
     0
300
10:1
140
10.0
141
1.0
290
     0
  0
SCALE
  5
77
102
{ACAD_REACTORS
330
66
102
}
330
66
100
AcDbScale
 70
     0
300
100:1
140
100.0
141
1.0
290
     0
  0
SCALE
  5
78
102
{ACAD_REACTORS
330
66
102
}
330
66
100
AcDbScale
 70
     0
300
1/128" = 1'-0"
140
0.0078125
141
12.0
290
     0
  0
SCALE
  5
79
102
{ACAD_REACTORS
330
66
102
}
330
66
100
AcDbScale
 70
     0
300
1/64" = 1'-0"
140
0.015625
141
12.0
290
     0
  0
SCALE
  5
7A
102
{ACAD_REACTORS
330
66
102
}
330
66
100
AcDbScale
 70
     0
300
1/32" = 1'-0"
140
0.03125
141
12.0
290
     0
  0
SCALE
  5
7B
102
{ACAD_REACTORS
330
66
102
}
330
66
100
AcDbScale
 70
     0
300
1/16" = 1'-0"
140
0.0625
141
12.0
290
     0
  0
SCALE
  5
7C
102
{ACAD_REACTORS
330
66
102
}
330
66
100
AcDbScale
 70
     0
300
3/32" = 1'-0"
140
0.09375
141
12.0
290
     0
  0
SCALE
  5
7D
102
{ACAD_REACTORS
330
66
102
}
330
66
100
AcDbScale
 70
     0
300
1/8" = 1'-0"
140
0.125
141
12.0
290
     0
  0
SCALE
  5
7E
102
{ACAD_REACTORS
330
66
102
}
330
66
100
AcDbScale
 70
     0
300
3/16" = 1'-0"
140
0.1875
141
12.0
290
     0
  0
SCALE
  5
7F
102
{ACAD_REACTORS
330
66
102
}
330
66
100
AcDbScale
 70
     0
300
1/4" = 1'-0"
140
0.25
141
12.0
290
     0
  0
SCALE
  5
80
102
{ACAD_REACTORS
330
66
102
}
330
66
100
AcDbScale
 70
     0
300
3/8" = 1'-0"
140
0.375
141
12.0
290
     0
  0
SCALE
  5
81
102
{ACAD_REACTORS
330
66
102
}
330
66
100
AcDbScale
 70
     0
300
1/2" = 1'-0"
140
0.5
141
12.0
290
     0
  0
SCALE
  5
82
102
{ACAD_REACTORS
330
66
102
}
330
66
100
AcDbScale
 70
     0
300
3/4" = 1'-0"
140
0.75
141
12.0
290
     0
  0
SCALE
  5
83
102
{ACAD_REACTORS
330
66
102
}
330
66
100
AcDbScale
 70
     0
300
1" = 1'-0"
140
1.0
141
12.0
290
     0
  0
SCALE
  5
84
102
{ACAD_REACTORS
330
66
102
}
330
66
100
AcDbScale
 70
     0
300
1-1/2" = 1'-0"
140
1.5
141
12.0
290
     0
  0
SCALE
  5
85
102
{ACAD_REACTORS
330
66
102
}
330
66
100
AcDbScale
 70
     0
300
3" = 1'-0"
140
3.0
141
12.0
290
     0
  0
SCALE
  5
86
102
{ACAD_REACTORS
330
66
102
}
330
66
100
AcDbScale
 70
     0
300
6" = 1'-0"
140
6.0
141
12.0
290
     0
  0
SCALE
  5
87
102
{ACAD_REACTORS
330
66
102
}
330
66
100
AcDbScale
 70
     0
300
1'-0" = 1'-0"
140
12.0
141
12.0
290
     0
  0
TABLESTYLE
  5
2E6
102
{ACAD_REACTORS
330
2DA
102
}
102
{ACAD_XDICTIONARY
360
3D5
102
}
330
2DA
100
AcDbTableStyle
  3
Standard
 70
     0
 71
     0
 40
0.06
 41
0.06
280
     0
281
     0
  7
Standard
140
4.5
170
     2
 62
     0
 63
   257
283
     0
 90
        4
 91
        0
  1

274
    -2
284
     1
 64
     0
275
    -2
285
     1
 65
     0
276
    -2
286
     1
 66
     0
277
    -2
287
     1
 67
     0
278
    -2
288
     1
 68
     0
279
    -2
289
     1
 69
     0
  7
Standard
140
6.0
170
     5
 62
     0
 63
   257
283
     0
 90
        4
 91
        0
  1

274
    -2
284
     1
 64
     0
275
    -2
285
     1
 65
     0
276
    -2
286
     1
 66
     0
277
    -2
287
     1
 67
     0
278
    -2
288
     1
 68
     0
279
    -2
289
     1
 69
     0
  7
Standard
140
4.5
170
     5
 62
     0
 63
   257
283
     0
 90
        4
 91
        0
  1

274
    -2
284
     1
 64
     0
275
    -2
285
     1
 65
     0
276
    -2
286
     1
 66
     0
277
    -2
287
     1
 67
     0
278
    -2
288
     1
 68
     0
279
    -2
289
     1
 69
     0
  0
VISUALSTYLE
  5
2F
102
{ACAD_REACTORS
330
2A
102
}
330
2A
100
AcDbVisualStyle
  2
2dWireframe
 70
     4
177
     2
291
     0
 71
     0
176
     1
 72
     2
176
     1
 73
     0
176
     1
 90
        0
176
     1
 40
-0.6
176
     1
 41
-30.0
176
     1
 62
     5
 63
     7
421
 16777215
176
     1
 74
     1
176
     1
 91
        4
176
     1
 64
     7
176
     1
 65
   257
176
     1
 75
     1
176
     1
175
     1
176
     1
 42
1.0
176
     1
 92
        0
176
     1
 66
   257
176
     1
 43
1.0
176
     1
 76
     1
176
     1
 77
     6
176
     1
 78
     2
176
     1
 67
     7
176
     1
 79
     5
176
     1
170
     0
176
     1
171
     0
176
     1
290
     0
176
     1
 93
        1
176
     1
 44
0.0
176
     1
173
     0
176
     1
  0
VISUALSTYLE
  5
31
102
{ACAD_REACTORS
330
2A
102
}
330
2A
100
AcDbVisualStyle
  2
3D Hidden
 70
     6
177
     2
291
     0
 71
     1
176
     1
 72
     2
176
     1
 73
     2
176
     1
 90
        0
176
     1
 40
-0.6
176
     1
 41
-30.0
176
     1
 62
     5
 63
     7
421
 16777215
176
     1
 74
     2
176
     1
 91
        2
176
     1
 64
     7
176
     1
 65
   257
176
     1
 75
     2
176
     1
175
     1
176
     1
 42
40.0
176
     1
 92
        0
176
     1
 66
   257
176
     1
 43
1.0
176
     1
 76
     1
176
     1
 77
     6
176
     1
 78
     2
176
     1
 67
     7
176
     1
 79
     3
176
     1
170
     0
176
     1
171
     0
176
     1
290
     0
176
     1
 93
        1
176
     1
 44
0.0
176
     1
173
     0
176
     1
  0
VISUALSTYLE
  5
30
102
{ACAD_REACTORS
330
2A
102
}
330
2A
100
AcDbVisualStyle
  2
3dWireframe
 70
     5
177
     2
291
     0
 71
     0
176
     1
 72
     2
176
     1
 73
     0
176
     1
 90
        0
176
     1
 40
-0.6
176
     1
 41
-30.0
176
     1
 62
     5
 63
     7
421
 16777215
176
     1
 74
     1
176
     1
 91
        4
176
     1
 64
     7
176
     1
 65
   257
176
     1
 75
     1
176
     1
175
     1
176
     1
 42
1.0
176
     1
 92
        0
176
     1
 66
   257
176
     1
 43
1.0
176
     1
 76
     1
176
     1
 77
     6
176
     1
 78
     2
176
     1
 67
     7
176
     1
 79
     5
176
     1
170
     0
176
     1
171
     0
176
     1
290
     0
176
     1
 93
        1
176
     1
 44
0.0
176
     1
173
     0
176
     1
  0
VISUALSTYLE
  5
32
102
{ACAD_REACTORS
330
2A
102
}
330
2A
100
AcDbVisualStyle
  2
Basic
 70
     7
177
     2
291
     1
 71
     1
176
     1
 72
     0
176
     1
 73
     1
176
     1
 90
        0
176
     1
 40
-0.6
176
     1
 41
-30.0
176
     1
 62
     5
 63
     7
421
 16777215
176
     1
 74
     0
176
     1
 91
        4
176
     1
 64
     7
176
     1
 65
   257
176
     1
 75
     1
176
     1
175
     1
176
     1
 42
1.0
176
     1
 92
        8
176
     1
 66
     7
176
     1
 43
1.0
176
     1
 76
     1
176
     1
 77
     6
176
     1
 78
     2
176
     1
 67
     7
176
     1
 79
     5
176
     1
170
     0
176
     1
171
     0
176
     1
290
     0
176
     1
 93
        1
176
     1
 44
0.0
176
     1
173
     0
176
     1
  0
VISUALSTYLE
  5
36
102
{ACAD_REACTORS
330
2A
102
}
330
2A
100
AcDbVisualStyle
  2
Brighten
 70
    12
177
     2
291
     1
 71
     2
176
     1
 72
     2
176
     1
 73
     0
176
     1
 90
        0
176
     1
 40
-0.6
176
     1
 41
-30.0
176
     1
 62
     5
 63
     7
421
 16777215
176
     1
 74
     1
176
     1
 91
        4
176
     1
 64
     7
176
     1
 65
   257
176
     1
 75
     1
176
     1
175
     1
176
     1
 42
1.0
176
     1
 92
        8
176
     1
 66
     7
176
     1
 43
1.0
176
     1
 76
     1
176
     1
 77
     6
176
     1
 78
     2
176
     1
 67
     7
176
     1
 79
     5
176
     1
170
     0
176
     1
171
     0
176
     1
290
     0
176
     1
 93
        1
176
     1
 44
50.0
176
     1
173
     0
176
     1
  0
VISUALSTYLE
  5
3A
102
{ACAD_REACTORS
330
2A
102
}
330
2A
100
AcDbVisualStyle
  2
ColorChange
 70
    16
177
     2
291
     1
 71
     2
176
     1
 72
     2
176
     1
 73
     3
176
     1
 90
        0
176
     1
 40
-0.6
176
     1
 41
-30.0
176
     1
 62
     5
 63
     8
421
  8421504
176
     1
 74
     1
176
     1
 91
        4
176
     1
 64
     7
176
     1
 65
   257
176
     1
 75
     1
176
     1
175
     1
176
     1
 42
1.0
176
     1
 92
        8
176
     1
 66
     8
424
  8421504
176
     1
 43
1.0
176
     1
 76
     1
176
     1
 77
     6
176
     1
 78
     2
176
     1
 67
     7
176
     1
 79
     5
176
     1
170
     0
176
     1
171
     0
176
     1
290
     0
176
     1
 93
        1
176
     1
 44
0.0
176
     1
173
     0
176
     1
  0
VISUALSTYLE
  5
34
102
{ACAD_REACTORS
330
2A
102
}
330
2A
100
AcDbVisualStyle
  2
Conceptual
 70
     9
177
     2
291
     0
 71
     3
176
     1
 72
     2
176
     1
 73
     0
176
     1
 90
        0
176
     1
 40
-0.6
176
     1
 41
-30.0
176
     1
 62
     5
 63
     7
421
 16777215
176
     1
 74
     2
176
     1
 91
        2
176
     1
 64
     7
176
     1
 65
   257
176
     1
 75
     1
176
     1
175
     1
176
     1
 42
40.0
176
     1
 92
        8
176
     1
 66
     7
176
     1
 43
1.0
176
     1
 76
     1
176
     1
 77
     6
176
     1
 78
     2
176
     1
 67
     7
176
     1
 79
     3
176
     1
170
     0
176
     1
171
     0
176
     1
290
     0
176
     1
 93
        1
176
     1
 44
0.0
176
     1
173
     0
176
     1
  0
VISUALSTYLE
  5
35
102
{ACAD_REACTORS
330
2A
102
}
330
2A
100
AcDbVisualStyle
  2
Dim
 70
    11
177
     2
291
     1
 71
     2
176
     1
 72
     2
176
     1
 73
     0
176
     1
 90
        0
176
     1
 40
-0.6
176
     1
 41
-30.0
176
     1
 62
     5
 63
     7
421
 16777215
176
     1
 74
     1
176
     1
 91
        4
176
     1
 64
     7
176
     1
 65
   257
176
     1
 75
     1
176
     1
175
     1
176
     1
 42
1.0
176
     1
 92
        8
176
     1
 66
     7
176
     1
 43
1.0
176
     1
 76
     1
176
     1
 77
     6
176
     1
 78
     2
176
     1
 67
     7
176
     1
 79
     5
176
     1
170
     0
176
     1
171
     0
176
     1
290
     0
176
     1
 93
        1
176
     1
 44
-50.0
176
     1
173
     0
176
     1
  0
VISUALSTYLE
  5
2E0
102
{ACAD_REACTORS
330
2A
102
}
330
2A
100
AcDbVisualStyle
  2
EdgeColorOff
 70
    22
177
     2
291
     1
 71
     2
176
     1
 72
     2
176
     1
 73
     0
176
     1
 90
        0
176
     1
 40
0.6
176
     1
 41
30.0
176
     1
 62
     5
 63
     7
421
 16777215
176
     1
 74
     1
176
     1
 91
        4
176
     1
 64
     7
176
     1
 65
   257
176
     1
 75
     1
176
     1
175
     1
176
     1
 42
1.0
176
     1
 92
        8
176
     1
 66
     7
176
     1
 43
1.0
176
     1
 76
     1
176
     1
 77
     6
176
     1
 78
     2
176
     1
 67
     7
176
     1
 79
     5
176
     1
170
     0
176
     1
171
     0
176
     1
290
     0
176
     1
 93
        1
176
     1
 44
0.0
176
     1
173
     0
176
     1
  0
VISUALSTYLE
  5
39
102
{ACAD_REACTORS
330
2A
102
}
330
2A
100
AcDbVisualStyle
  2
Facepattern
 70
    15
177
     2
291
     1
 71
     2
176
     1
 72
     2
176
     1
 73
     0
176
     1
 90
        0
176
     1
 40
-0.6
176
     1
 41
-30.0
176
     1
 62
     5
 63
     7
421
 16777215
176
     1
 74
     1
176
     1
 91
        4
176
     1
 64
     7
176
     1
 65
   257
176
     1
 75
     1
176
     1
175
     1
176
     1
 42
1.0
176
     1
 92
        8
176
     1
 66
     7
176
     1
 43
1.0
176
     1
 76
     1
176
     1
 77
     6
176
     1
 78
     2
176
     1
 67
     7
176
     1
 79
     5
176
     1
170
     0
176
     1
171
     0
176
     1
290
     0
176
     1
 93
        1
176
     1
 44
0.0
176
     1
173
     0
176
     1
  0
VISUALSTYLE
  5
2B
102
{ACAD_REACTORS
330
2A
102
}
330
2A
100
AcDbVisualStyle
  2
Flat
 70
     0
177
     2
291
     1
 71
     2
176
     1
 72
     1
176
     1
 73
     1
176
     1
 90
        2
176
     1
 40
-0.6
176
     1
 41
30.0
176
     1
 62
     5
 63
     7
421
 16777215
176
     1
 74
     0
176
     1
 91
        4
176
     1
 64
     7
176
     1
 65
   257
176
     1
 75
     1
176
     1
175
     1
176
     1
 42
1.0
176
     1
 92
        8
176
     1
 66
     7
176
     1
 43
1.0
176
     1
 76
     1
176
     1
 77
     6
176
     1
 78
     2
176
     1
 67
     7
176
     1
 79
     5
176
     1
170
     0
176
     1
171
     0
176
     1
290
     0
176
     1
 93
       13
176
     1
 44
0.0
176
     1
173
     0
176
     1
  0
VISUALSTYLE
  5
2C
102
{ACAD_REACTORS
330
2A
102
}
330
2A
100
AcDbVisualStyle
  2
FlatWithEdges
 70
     1
177
     2
291
     1
 71
     2
176
     1
 72
     1
176
     1
 73
     1
176
     1
 90
        2
176
     1
 40
-0.6
176
     1
 41
30.0
176
     1
 62
     5
 63
     7
421
 16777215
176
     1
 74
     1
176
     1
 91
        4
176
     1
 64
     7
176
     1
 65
   257
176
     1
 75
     1
176
     1
175
     1
176
     1
 42
1.0
176
     1
 92
        0
176
     1
 66
   257
176
     1
 43
1.0
176
     1
 76
     1
176
     1
 77
     6
176
     1
 78
     2
176
     1
 67
     7
176
     1
 79
     5
176
     1
170
     0
176
     1
171
     0
176
     1
290
     0
176
     1
 93
       13
176
     1
 44
0.0
176
     1
173
     0
176
     1
  0
VISUALSTYLE
  5
2D
102
{ACAD_REACTORS
330
2A
102
}
330
2A
100
AcDbVisualStyle
  2
Gouraud
 70
     2
177
     2
291
     1
 71
     2
176
     1
 72
     2
176
     1
 73
     1
176
     1
 90
        2
176
     1
 40
-0.6
176
     1
 41
30.0
176
     1
 62
     5
 63
     7
421
 16777215
176
     1
 74
     0
176
     1
 91
        4
176
     1
 64
     7
176
     1
 65
   257
176
     1
 75
     1
176
     1
175
     1
176
     1
 42
1.0
176
     1
 92
        0
176
     1
 66
     7
176
     1
 43
1.0
176
     1
 76
     1
176
     1
 77
     6
176
     1
 78
     2
176
     1
 67
     7
176
     1
 79
     5
176
     1
170
     0
176
     1
171
     0
176
     1
290
     0
176
     1
 93
       13
176
     1
 44
0.0
176
     1
173
     0
176
     1
  0
VISUALSTYLE
  5
2E
102
{ACAD_REACTORS
330
2A
102
}
330
2A
100
AcDbVisualStyle
  2
GouraudWithEdges
 70
     3
177
     2
291
     1
 71
     2
176
     1
 72
     2
176
     1
 73
     1
176
     1
 90
        2
176
     1
 40
-0.6
176
     1
 41
30.0
176
     1
 62
     5
 63
     7
421
 16777215
176
     1
 74
     1
176
     1
 91
        4
176
     1
 64
     7
176
     1
 65
   257
176
     1
 75
     1
176
     1
175
     1
176
     1
 42
1.0
176
     1
 92
        0
176
     1
 66
   257
176
     1
 43
1.0
176
     1
 76
     1
176
     1
 77
     6
176
     1
 78
     2
176
     1
 67
     7
176
     1
 79
     5
176
     1
170
     0
176
     1
171
     0
176
     1
290
     0
176
     1
 93
       13
176
     1
 44
0.0
176
     1
173
     0
176
     1
  0
VISUALSTYLE
  5
2DD
102
{ACAD_REACTORS
330
2A
102
}
330
2A
100
AcDbVisualStyle
  2
Hidden
 70
     6
177
     2
291
     0
 71
     1
176
     1
 72
     2
176
     1
 73
     2
176
     1
 90
        0
176
     1
 40
0.6
176
     1
 41
30.0
176
     1
 62
     5
 63
     7
421
 16777215
176
     1
 74
     2
176
     1
 91
        2
176
     1
 64
     7
176
     1
 65
   257
176
     1
 75
     2
176
     1
175
     1
176
     1
 42
40.0
176
     1
 92
        0
176
     1
 66
   257
176
     1
 43
1.0
176
     1
 76
     1
176
     1
 77
     6
176
     1
 78
     2
176
     1
 67
     7
176
     1
 79
     3
176
     1
170
     0
176
     1
171
     0
176
     1
290
     0
176
     1
 93
        1
176
     1
 44
0.0
176
     1
173
     0
176
     1
  0
VISUALSTYLE
  5
2DE
102
{ACAD_REACTORS
330
2A
102
}
330
2A
100
AcDbVisualStyle
  2
JitterOff
 70
    20
177
     2
291
     1
 71
     2
176
     1
 72
     2
176
     1
 73
     0
176
     1
 90
        0
176
     1
 40
0.6
176
     1
 41
30.0
176
     1
 62
     5
 63
     7
421
 16777215
176
     1
 74
     1
176
     1
 91
        4
176
     1
 64
     7
176
     1
 65
   257
176
     1
 75
     1
176
     1
175
     1
176
     1
 42
1.0
176
     1
 92
       10
176
     1
 66
     7
176
     1
 43
1.0
176
     1
 76
     1
176
     1
 77
     6
176
     1
 78
     2
176
     1
 67
     7
176
     1
 79
     5
176
     1
170
     0
176
     1
171
     0
176
     1
290
     0
176
     1
 93
        1
176
     1
 44
0.0
176
     1
173
     0
176
     1
  0
VISUALSTYLE
  5
38
102
{ACAD_REACTORS
330
2A
102
}
330
2A
100
AcDbVisualStyle
  2
Linepattern
 70
    14
177
     2
291
     1
 71
     2
176
     1
 72
     2
176
     1
 73
     0
176
     1
 90
        0
176
     1
 40
-0.6
176
     1
 41
-30.0
176
     1
 62
     5
 63
     7
421
 16777215
176
     1
 74
     1
176
     1
 91
        4
176
     1
 64
     7
176
     1
 65
   257
176
     1
 75
     7
176
     1
175
     7
176
     1
 42
1.0
176
     1
 92
        8
176
     1
 66
     7
176
     1
 43
1.0
176
     1
 76
     1
176
     1
 77
     6
176
     1
 78
     2
176
     1
 67
     7
176
     1
 79
     5
176
     1
170
     0
176
     1
171
     0
176
     1
290
     0
176
     1
 93
        1
176
     1
 44
0.0
176
     1
173
     0
176
     1
  0
VISUALSTYLE
  5
2DF
102
{ACAD_REACTORS
330
2A
102
}
330
2A
100
AcDbVisualStyle
  2
OverhangOff
 70
    21
177
     2
291
     1
 71
     2
176
     1
 72
     2
176
     1
 73
     0
176
     1
 90
        0
176
     1
 40
0.6
176
     1
 41
30.0
176
     1
 62
     5
 63
     7
421
 16777215
176
     1
 74
     1
176
     1
 91
        4
176
     1
 64
     7
176
     1
 65
   257
176
     1
 75
     1
176
     1
175
     1
176
     1
 42
1.0
176
     1
 92
        9
176
     1
 66
     7
176
     1
 43
1.0
176
     1
 76
     1
176
     1
 77
     6
176
     1
 78
     2
176
     1
 67
     7
176
     1
 79
     5
176
     1
170
     0
176
     1
171
     0
176
     1
290
     0
176
     1
 93
        1
176
     1
 44
0.0
176
     1
173
     0
176
     1
  0
VISUALSTYLE
  5
33
102
{ACAD_REACTORS
330
2A
102
}
330
2A
100
AcDbVisualStyle
  2
Realistic
 70
     8
177
     2
291
     0
 71
     2
176
     1
 72
     2
176
     1
 73
     0
176
     1
 90
        0
176
     1
 40
-0.6
176
     1
 41
-30.0
176
     1
 62
     5
 63
     7
421
 16777215
176
     1
 74
     1
176
     1
 91
        0
176
     1
 64
     7
176
     1
 65
   257
176
     1
 75
     1
176
     1
175
     1
176
     1
 42
1.0
176
     1
 92
        8
176
     1
 66
     8
424
  7895160
176
     1
 43
1.0
176
     1
 76
     1
176
     1
 77
     6
176
     1
 78
     2
176
     1
 67
     7
176
     1
 79
     5
176
     1
170
     0
176
     1
171
     0
176
     1
290
     0
176
     1
 93
       13
176
     1
 44
0.0
176
     1
173
     0
176
     1
  0
VISUALSTYLE
  5
2E5
102
{ACAD_REACTORS
330
2A
102
}
330
2A
100
AcDbVisualStyle
  2
Shaded
 70
    27
177
     2
291
     0
 71
     2
176
     1
 72
     2
176
     1
 73
     1
176
     1
 90
        2
176
     1
 40
0.6
176
     1
 41
30.0
176
     1
 62
     5
 63
     7
421
 16777215
176
     1
 74
     0
176
     1
 91
        4
176
     1
 64
     7
176
     1
 65
   257
176
     1
 75
     1
176
     1
175
     1
176
     1
 42
1.0
176
     1
 92
        8
176
     1
 66
   257
176
     1
 43
1.0
176
     1
 76
     1
176
     1
 77
     6
176
     1
 78
     2
176
     1
 67
     8
425
  7895160
176
     1
 79
     3
176
     1
170
     0
176
     1
171
     0
176
     1
290
     0
176
     1
 93
        5
176
     1
 44
0.0
176
     1
173
     0
176
     1
  0
VISUALSTYLE
  5
2E4
102
{ACAD_REACTORS
330
2A
102
}
330
2A
100
AcDbVisualStyle
  2
Shaded with edges
 70
    26
177
     2
291
     0
 71
     2
176
     1
 72
     2
176
     1
 73
     1
176
     1
 90
        2
176
     1
 40
0.6
176
     1
 41
30.0
176
     1
 62
     5
 63
     7
421
 16777215
176
     1
 74
     1
176
     1
 91
       10
176
     1
 64
     7
176
     1
 65
   257
176
     1
 75
     2
176
     1
175
     1
176
     1
 42
1.0
176
     1
 92
        8
176
     1
 66
   257
176
     1
 43
1.0
176
     1
 76
     1
176
     1
 77
     6
176
     1
 78
     2
176
     1
 67
     7
176
     1
 79
     3
176
     1
170
     0
176
     1
171
     0
176
     1
290
     0
176
     1
 93
        5
176
     1
 44
0.0
176
     1
173
     0
176
     1
  0
VISUALSTYLE
  5
2E1
102
{ACAD_REACTORS
330
2A
102
}
330
2A
100
AcDbVisualStyle
  2
Shades of Gray
 70
    23
177
     2
291
     0
 71
     2
176
     1
 72
     2
176
     1
 73
     3
176
     1
 90
        0
176
     1
 40
0.6
176
     1
 41
30.0
176
     1
 62
     5
 63
     7
421
 16777215
176
     1
 74
     2
176
     1
 91
        2
176
     1
 64
     7
176
     1
 65
     7
176
     1
 75
     1
176
     1
175
     1
176
     1
 42
40.0
176
     1
 92
        8
176
     1
 66
     7
176
     1
 43
1.0
176
     1
 76
     1
176
     1
 77
     6
176
     1
 78
     2
176
     1
 67
     7
176
     1
 79
     3
176
     1
170
     0
176
     1
171
     0
176
     1
290
     0
176
     1
 93
        1
176
     1
 44
0.0
176
     1
173
     0
176
     1
  0
VISUALSTYLE
  5
2E2
102
{ACAD_REACTORS
330
2A
102
}
330
2A
100
AcDbVisualStyle
  2
Sketchy
 70
    24
177
     2
291
     0
 71
     1
176
     1
 72
     2
176
     1
 73
     2
176
     1
 90
        0
176
     1
 40
0.6
176
     1
 41
30.0
176
     1
 62
     5
 63
     7
421
 16777215
176
     1
 74
     2
176
     1
 91
        2
176
     1
 64
     7
176
     1
 65
     7
176
     1
 75
     1
176
     1
175
     1
176
     1
 42
40.0
176
     1
 92
       11
176
     1
 66
     7
176
     1
 43
1.0
176
     1
 76
     1
176
     1
 77
     6
176
     1
 78
     2
176
     1
 67
     7
176
     1
 79
     6
176
     1
170
     0
176
     1
171
     0
176
     1
290
     0
176
     1
 93
        1
176
     1
 44
0.0
176
     1
173
     0
176
     1
  0
VISUALSTYLE
  5
37
102
{ACAD_REACTORS
330
2A
102
}
330
2A
100
AcDbVisualStyle
  2
Thicken
 70
    13
177
     2
291
     1
 71
     2
176
     1
 72
     2
176
     1
 73
     0
176
     1
 90
        0
176
     1
 40
-0.6
176
     1
 41
-30.0
176
     1
 62
     5
 63
     7
421
 16777215
176
     1
 74
     1
176
     1
 91
        4
176
     1
 64
     7
176
     1
 65
   257
176
     1
 75
     1
176
     1
175
     1
176
     1
 42
1.0
176
     1
 92
       12
176
     1
 66
     7
176
     1
 43
1.0
176
     1
 76
     1
176
     1
 77
     6
176
     1
 78
     2
176
     1
 67
     7
176
     1
 79
     5
176
     1
170
     0
176
     1
171
     0
176
     1
290
     0
176
     1
 93
        1
176
     1
 44
0.0
176
     1
173
     0
176
     1
  0
VISUALSTYLE
  5
2DC
102
{ACAD_REACTORS
330
2A
102
}
330
2A
100
AcDbVisualStyle
  2
Wireframe
 70
     5
177
     2
291
     0
 71
     0
176
     1
 72
     2
176
     1
 73
     0
176
     1
 90
        0
176
     1
 40
0.6
176
     1
 41
30.0
176
     1
 62
     5
 63
     7
421
 16777215
176
     1
 74
     1
176
     1
 91
        4
176
     1
 64
     7
176
     1
 65
   257
176
     1
 75
     1
176
     1
175
     1
176
     1
 42
1.0
176
     1
 92
        0
176
     1
 66
   257
176
     1
 43
1.0
176
     1
 76
     1
176
     1
 77
     6
176
     1
 78
     2
176
     1
 67
     7
176
     1
 79
     3
176
     1
170
     0
176
     1
171
     0
176
     1
290
     0
176
     1
 93
        1
176
     1
 44
0.0
176
     1
173
     0
176
     1
  0
VISUALSTYLE
  5
2E3
102
{ACAD_REACTORS
330
2A
102
}
330
2A
100
AcDbVisualStyle
  2
X-Ray
 70
    25
177
     2
291
     0
 71
     2
176
     1
 72
     2
176
     1
 73
     1
176
     1
 90
        1
176
     1
 40
0.5
176
     1
 41
30.0
176
     1
 62
     5
 63
     7
421
 16777215
176
     1
 74
     1
176
     1
 91
        0
176
     1
 64
     7
176
     1
 65
   257
176
     1
 75
     1
176
     1
175
     1
176
     1
 42
1.0
176
     1
 92
        8
176
     1
 66
     7
176
     1
 43
1.0
176
     1
 76
     1
176
     1
 77
     6
176
     1
 78
     2
176
     1
 67
     7
176
     1
 79
     3
176
     1
170
     0
176
     1
171
     0
176
     1
290
     0
176
     1
 93
       13
176
     1
 44
0.0
176
     1
173
     0
176
     1
  0
DICTIONARYVAR
  5
2B9
102
{ACAD_REACTORS
330
2B8
102
}
330
2B8
100
DictionaryVariables
280
     0
  1
1:1
  0
DICTIONARYVAR
  5
2EB
102
{ACAD_REACTORS
330
2B8
102
}
330
2B8
100
DictionaryVariables
280
     0
  1
Standard
  0
DICTIONARYVAR
  5
2EA
102
{ACAD_REACTORS
330
2B8
102
}
330
2B8
100
DictionaryVariables
280
     0
  1
Standard
  0
DICTIONARYVAR
  5
2EC
102
{ACAD_REACTORS
330
2B8
102
}
330
2B8
100
DictionaryVariables
280
     0
  1
0
  0
DICTIONARY
  5
3D5
330
2E6
100
AcDbDictionary
280
     1
281
     1
  3
ACAD_ROUNDTRIP_2008_TABLESTYLE_CELLSTYLEMAP
360
3D6
  0
CELLSTYLEMAP
  5
3D6
102
{ACAD_REACTORS
330
3D5
102
}
330
3D5
100
AcDbCellStyleMap
 90
        3
300
CELLSTYLE
  1
TABLEFORMAT_BEGIN
 90
        5
170
     1
 91
        0
 92
    32768
 62
   257
 93
        1
300
CONTENTFORMAT
  1
CONTENTFORMAT_BEGIN
 90
        0
 91
        0
 92
        4
 93
        0
300

 40
0.0
140
1.0
 94
        5
 62
     0
340
11
144
6.0
309
CONTENTFORMAT_END
171
     1
301
MARGIN
  1
CELLMARGIN_BEGIN
 40
1.5
 40
1.5
 40
1.5
 40
1.5
 40
1.5
 40
1.5
309
CELLMARGIN_END
 94
        6
 95
        1
302
GRIDFORMAT
  1
GRIDFORMAT_BEGIN
 90
        0
 91
        1
 62
     0
 92
       -2
340
14
 93
        0
 40
0.045
309
GRIDFORMAT_END
 95
        2
302
GRIDFORMAT
  1
GRIDFORMAT_BEGIN
 90
        0
 91
        1
 62
     0
 92
       -2
340
14
 93
        0
 40
0.045
309
GRIDFORMAT_END
 95
        4
302
GRIDFORMAT
  1
GRIDFORMAT_BEGIN
 90
        0
 91
        1
 62
     0
 92
       -2
340
14
 93
        0
 40
0.045
309
GRIDFORMAT_END
 95
        8
302
GRIDFORMAT
  1
GRIDFORMAT_BEGIN
 90
        0
 91
        1
 62
     0
 92
       -2
340
14
 93
        0
 40
0.045
309
GRIDFORMAT_END
 95
       16
302
GRIDFORMAT
  1
GRIDFORMAT_BEGIN
 90
        0
 91
        1
 62
     0
 92
       -2
340
14
 93
        0
 40
0.045
309
GRIDFORMAT_END
 95
       32
302
GRIDFORMAT
  1
GRIDFORMAT_BEGIN
 90
        0
 91
        1
 62
     0
 92
       -2
340
14
 93
        0
 40
0.045
309
GRIDFORMAT_END
309
TABLEFORMAT_END
  1
CELLSTYLE_BEGIN
 90
        1
 91
        1
300
_TITLE
309
CELLSTYLE_END
300
CELLSTYLE
  1
TABLEFORMAT_BEGIN
 90
        5
170
     1
 91
        0
 92
        0
 62
   257
 93
        1
300
CONTENTFORMAT
  1
CONTENTFORMAT_BEGIN
 90
        0
 91
        0
 92
        4
 93
        0
300

 40
0.0
140
1.0
 94
        5
 62
     0
340
11
144
4.5
309
CONTENTFORMAT_END
171
     1
301
MARGIN
  1
CELLMARGIN_BEGIN
 40
1.5
 40
1.5
 40
1.5
 40
1.5
 40
1.5
 40
1.5
309
CELLMARGIN_END
 94
        6
 95
        1
302
GRIDFORMAT
  1
GRIDFORMAT_BEGIN
 90
        0
 91
        1
 62
     0
 92
       -2
340
14
 93
        0
 40
0.045
309
GRIDFORMAT_END
 95
        2
302
GRIDFORMAT
  1
GRIDFORMAT_BEGIN
 90
        0
 91
        1
 62
     0
 92
       -2
340
14
 93
        0
 40
0.045
309
GRIDFORMAT_END
 95
        4
302
GRIDFORMAT
  1
GRIDFORMAT_BEGIN
 90
        0
 91
        1
 62
     0
 92
       -2
340
14
 93
        0
 40
0.045
309
GRIDFORMAT_END
 95
        8
302
GRIDFORMAT
  1
GRIDFORMAT_BEGIN
 90
        0
 91
        1
 62
     0
 92
       -2
340
14
 93
        0
 40
0.045
309
GRIDFORMAT_END
 95
       16
302
GRIDFORMAT
  1
GRIDFORMAT_BEGIN
 90
        0
 91
        1
 62
     0
 92
       -2
340
14
 93
        0
 40
0.045
309
GRIDFORMAT_END
 95
       32
302
GRIDFORMAT
  1
GRIDFORMAT_BEGIN
 90
        0
 91
        1
 62
     0
 92
       -2
340
14
 93
        0
 40
0.045
309
GRIDFORMAT_END
309
TABLEFORMAT_END
  1
CELLSTYLE_BEGIN
 90
        2
 91
        1
300
_HEADER
309
CELLSTYLE_END
300
CELLSTYLE
  1
TABLEFORMAT_BEGIN
 90
        5
170
     1
 91
        0
 92
        0
 62
   257
 93
        1
300
CONTENTFORMAT
  1
CONTENTFORMAT_BEGIN
 90
        0
 91
        0
 92
        4
 93
        0
300

 40
0.0
140
1.0
 94
        2
 62
     0
340
11
144
4.5
309
CONTENTFORMAT_END
171
     1
301
MARGIN
  1
CELLMARGIN_BEGIN
 40
1.5
 40
1.5
 40
1.5
 40
1.5
 40
1.5
 40
1.5
309
CELLMARGIN_END
 94
        6
 95
        1
302
GRIDFORMAT
  1
GRIDFORMAT_BEGIN
 90
        0
 91
        1
 62
     0
 92
       -2
340
14
 93
        0
 40
0.045
309
GRIDFORMAT_END
 95
        2
302
GRIDFORMAT
  1
GRIDFORMAT_BEGIN
 90
        0
 91
        1
 62
     0
 92
       -2
340
14
 93
        0
 40
0.045
309
GRIDFORMAT_END
 95
        4
302
GRIDFORMAT
  1
GRIDFORMAT_BEGIN
 90
        0
 91
        1
 62
     0
 92
       -2
340
14
 93
        0
 40
0.045
309
GRIDFORMAT_END
 95
        8
302
GRIDFORMAT
  1
GRIDFORMAT_BEGIN
 90
        0
 91
        1
 62
     0
 92
       -2
340
14
 93
        0
 40
0.045
309
GRIDFORMAT_END
 95
       16
302
GRIDFORMAT
  1
GRIDFORMAT_BEGIN
 90
        0
 91
        1
 62
     0
 92
       -2
340
14
 93
        0
 40
0.045
309
GRIDFORMAT_END
 95
       32
302
GRIDFORMAT
  1
GRIDFORMAT_BEGIN
 90
        0
 91
        1
 62
     0
 92
       -2
340
14
 93
        0
 40
0.045
309
GRIDFORMAT_END
309
TABLEFORMAT_END
  1
CELLSTYLE_BEGIN
 90
        3
 91
        2
300
_DATA
309
CELLSTYLE_END
  0
ENDSEC
  0
EOF
